<?xml version="1.0" encoding="utf-8"?>
<!-- Generator: Adobe Illustrator 23.0.6, SVG Export Plug-In . SVG Version: 6.00 Build 0)  -->
<svg version="1.1" id="レイヤー_1" xmlns="http://www.w3.org/2000/svg" xmlns:xlink="http://www.w3.org/1999/xlink" x="0px"
	 y="0px" viewBox="0 0 458.7 87.5" style="enable-background:new 0 0 458.7 87.5;" xml:space="preserve">
<style type="text/css">
	.st0{fill:#FFFFFF;}
</style>
<path class="st0" d="M31.2,69.6c0,1.4,0,2.7-0.1,3.8c-0.1,1.1-0.2,2.1-0.4,2.9c-0.5,2.3-1.5,4.3-3,6c-2.8,3.2-6.6,4.8-11.5,4.8
	c-4.1,0-7.5-1.1-10.1-3.3c-2.7-2.3-4.3-5.4-4.7-9.4h7.1c0.3,1.5,0.7,2.7,1.4,3.5c1.5,1.9,3.6,2.9,6.4,2.9c5.2,0,7.8-3.2,7.8-9.6
	V49.9c-2.8,2.9-6.1,4.3-9.8,4.3c-4.2,0-7.6-1.5-10.3-4.5C1.4,46.6,0,42.7,0,38.1c0-4.5,1.2-8.3,3.8-11.4c2.7-3.3,6.2-5,10.7-5
	c3.9,0,7.1,1.4,9.7,4.3v-3.5h7.1V69.6z M24.4,38c0-3-0.8-5.4-2.4-7.2c-1.6-1.8-3.7-2.8-6.2-2.8c-2.7,0-4.8,1-6.4,3
	C8,32.9,7.3,35.2,7.3,38c0,2.8,0.7,5.1,2.1,6.9c1.5,2,3.7,2.9,6.4,2.9s4.9-1,6.4-3C23.6,43.1,24.4,40.8,24.4,38z"/>
<path class="st0" d="M49.8,22.6v17.7c0,5.1,2,7.6,6,7.6s6-2.5,6-7.6V22.6H69v17.8c0,2.5-0.3,4.6-0.9,6.4c-0.6,1.6-1.6,3-3.1,4.3
	c-2.4,2.1-5.5,3.1-9.2,3.1c-3.7,0-6.7-1-9.1-3.1c-1.5-1.3-2.5-2.7-3.1-4.3c-0.6-1.4-0.9-3.6-0.9-6.4V22.6H49.8z"/>
<path class="st0" d="M103.2,22.6h7.1v30.8h-7.1v-3.2c-2.9,2.7-6.1,4.1-9.4,4.1c-4.2,0-7.8-1.5-10.5-4.6c-2.8-3.1-4.1-7-4.1-11.7
	c0-4.6,1.4-8.5,4.1-11.5s6.2-4.6,10.3-4.6c3.6,0,6.8,1.5,9.6,4.4C103.2,26.1,103.2,22.6,103.2,22.6z M86.4,37.8c0,3,0.8,5.3,2.4,7.2
	c1.6,1.9,3.7,2.8,6.1,2.8c2.6,0,4.8-0.9,6.4-2.7c1.6-1.9,2.4-4.2,2.4-7.1s-0.8-5.3-2.4-7.1c-1.6-1.8-3.7-2.8-6.3-2.8
	c-2.4,0-4.5,0.9-6.1,2.8C87.2,32.8,86.4,35.1,86.4,37.8z"/>
<path class="st0" d="M121.9,22.6h7.1v2.8c1.3-1.4,2.5-2.3,3.5-2.8c1-0.5,2.2-0.8,3.7-0.8c1.9,0,3.8,0.6,5.9,1.8l-3.2,6.5
	c-1.4-1-2.7-1.5-3.9-1.5c-3.9,0-5.8,2.9-5.8,8.8v15.9h-7.1L121.9,22.6L121.9,22.6z"/>
<path class="st0" d="M171.3,0h7.1v53.3h-7.1v-3.2c-2.8,2.7-6,4.1-9.5,4.1c-4.2,0-7.7-1.5-10.5-4.6c-2.8-3.1-4.1-7-4.1-11.7
	c0-4.6,1.4-8.4,4.1-11.5c2.7-3.1,6.2-4.6,10.3-4.6c3.6,0,6.8,1.5,9.7,4.4L171.3,0L171.3,0z M154.5,37.8c0,3,0.8,5.3,2.4,7.2
	c1.6,1.9,3.7,2.8,6.1,2.8c2.6,0,4.8-0.9,6.4-2.7c1.6-1.9,2.4-4.2,2.4-7.1s-0.8-5.3-2.4-7.1c-1.6-1.8-3.7-2.8-6.3-2.8
	c-2.4,0-4.5,0.9-6.1,2.8C155.3,32.8,154.5,35.1,154.5,37.8z"/>
<path class="st0" d="M188.9,9.8c0-1.2,0.4-2.3,1.4-3.2c0.9-0.9,2-1.4,3.2-1.4c1.3,0,2.4,0.4,3.3,1.4c0.9,0.9,1.4,2,1.4,3.2
	s-0.4,2.4-1.4,3.3c-0.9,0.9-2,1.4-3.2,1.4s-2.4-0.4-3.3-1.4C189.4,12.2,188.9,11.1,188.9,9.8z M197.1,22.6v30.8H190V22.6H197.1z"/>
<path class="st0" d="M231.4,22.6h7.1v30.8h-7.1v-3.2c-2.9,2.7-6.1,4.1-9.4,4.1c-4.2,0-7.8-1.5-10.5-4.6c-2.8-3.1-4.1-7-4.1-11.7
	c0-4.6,1.4-8.5,4.1-11.5s6.2-4.6,10.4-4.6c3.6,0,6.8,1.5,9.6,4.4L231.4,22.6L231.4,22.6z M214.5,37.8c0,3,0.8,5.3,2.4,7.2
	c1.6,1.9,3.7,2.8,6.1,2.8c2.6,0,4.8-0.9,6.4-2.7c1.6-1.9,2.4-4.2,2.4-7.1s-0.8-5.3-2.4-7.1c-1.6-1.8-3.7-2.8-6.3-2.8
	c-2.4,0-4.5,0.9-6.1,2.8C215.3,32.8,214.5,35.1,214.5,37.8z"/>
<path class="st0" d="M250.1,22.6h7.1v2.8c2.5-2.5,5.3-3.7,8.4-3.7c3.6,0,6.4,1.1,8.4,3.4c1.7,1.9,2.6,5,2.6,9.4v18.9h-7.1V36.1
	c0-3-0.4-5.1-1.3-6.3c-0.8-1.2-2.3-1.8-4.5-1.8c-2.4,0-4,0.8-5,2.3c-1,1.5-1.5,4.2-1.5,8.1v14.8h-7.1L250.1,22.6L250.1,22.6z"/>
<g>
	<path class="st0" d="M395,23.9v9.4c-1.6-2-3.1-3.3-4.4-4.1c-1.3-0.8-2.8-1.1-4.5-1.1c-2.7,0-4.9,0.9-6.7,2.8
		c-1.8,1.9-2.6,4.2-2.6,7c0,2.9,0.9,5.2,2.6,7.1c1.7,1.8,3.9,2.8,6.6,2.8c1.7,0,3.2-0.4,4.5-1.1c1.3-0.7,2.8-2.1,4.5-4.2V52
		c-2.9,1.5-5.8,2.2-8.6,2.2c-4.8,0-8.7-1.5-11.9-4.6c-3.2-3.1-4.8-6.9-4.8-11.5s1.6-8.5,4.9-11.6s7.2-4.7,11.9-4.7
		C389.5,21.7,392.3,22.4,395,23.9z"/>
	<path class="st0" d="M427.1,22.6h7.1v30.8h-7.1v-3.2c-2.9,2.7-6.1,4.1-9.4,4.1c-4.2,0-7.8-1.5-10.5-4.6c-2.8-3.1-4.1-7-4.1-11.7
		c0-4.6,1.4-8.5,4.1-11.5s6.2-4.6,10.4-4.6c3.6,0,6.8,1.5,9.6,4.4V22.6z M410.3,37.8c0,3,0.8,5.3,2.4,7.2c1.6,1.9,3.7,2.8,6.1,2.8
		c2.6,0,4.8-0.9,6.4-2.7c1.6-1.9,2.4-4.2,2.4-7.1s-0.8-5.3-2.4-7.1c-1.6-1.8-3.7-2.8-6.3-2.8c-2.4,0-4.5,0.9-6.1,2.8
		C411.1,32.8,410.3,35.1,410.3,37.8z"/>
	<path class="st0" d="M453.1,29.2v24.1H446V29.2h-3v-6.6h3V11.3h7.1v11.3h5.5v6.6H453.1z"/>
</g>
<path class="st0" d="M351.4,37.8c0-0.1,0-0.3,0-0.4c0-0.3-0.1-0.7-0.1-1c0-0.2,0-0.3,0-0.5c0-0.4-0.1-0.8-0.2-1.2c0-0.1,0-0.1,0-0.2
	c-0.1-0.5-0.2-1-0.3-1.5c0-0.1-0.1-0.2-0.1-0.4c-0.1-0.4-0.2-0.8-0.3-1.1c0-0.1-0.1-0.3-0.1-0.4c-0.1-0.4-0.2-0.8-0.4-1.2
	c0-0.1-0.1-0.2-0.1-0.3c-0.2-0.5-0.4-1-0.6-1.5c0-0.1-0.1-0.2-0.1-0.3c-0.2-0.4-0.3-0.8-0.5-1.2c0-0.1-0.1-0.1-0.1-0.2
	c2.5-5,2-16.1-0.4-17.5c-1.3-0.7-7.2,1.6-12.4,4.7c0,0,0,0,0,0c-0.3-0.2-0.7-0.3-1-0.4c-0.1-0.1-0.2-0.1-0.3-0.1
	c-0.4-0.1-0.7-0.3-1.1-0.4c-0.1,0-0.2-0.1-0.4-0.1c-0.4-0.1-0.7-0.2-1.1-0.3c-0.1,0-0.2-0.1-0.4-0.1c-0.3-0.1-0.7-0.2-1-0.3v0
	c-0.1,0-0.1,0-0.2,0c-0.1,0-0.2-0.1-0.3-0.1c-0.2-0.1-0.5-0.1-0.8-0.1c-0.2,0-0.4-0.1-0.5-0.1c-0.1,0-0.2,0-0.3-0.1
	c-0.3-0.1-0.6-0.1-0.9-0.1c-0.1,0-0.2,0-0.4-0.1c0,0,0,0,0,0c-0.1,0-0.3,0-0.4-0.1c-0.4,0-0.8-0.1-1.3-0.1c-0.1,0-0.3,0-0.5,0
	c-0.1,0-0.1,0-0.2,0l0,0c-0.5,0-1,0-1.6,0s-1.1,0-1.6,0l0,0c-0.1,0-0.1,0-0.2,0c-0.2,0-0.3,0-0.5,0c-0.4,0-0.8,0.1-1.2,0.1
	c-0.1,0-0.3,0-0.4,0.1c0,0,0,0,0,0c-0.1,0-0.3,0-0.4,0.1c-0.3,0-0.6,0.1-0.9,0.1c-0.1,0-0.2,0-0.3,0.1c-0.2,0-0.4,0.1-0.5,0.1
	c-0.3,0.1-0.5,0.1-0.8,0.1c-0.1,0-0.2,0.1-0.3,0.1c-0.1,0-0.1,0-0.2,0c0,0,0,0,0,0c-0.4,0.1-0.7,0.2-1.1,0.3c-0.1,0-0.2,0.1-0.4,0.1
	c-0.4,0.1-0.8,0.2-1.1,0.3c-0.1,0-0.2,0.1-0.4,0.1c-0.4,0.1-0.7,0.3-1.1,0.4c-0.1,0.1-0.2,0.1-0.3,0.1c-0.4,0.1-0.7,0.3-1,0.4
	c0,0,0,0,0,0c-5.1-3-11.1-5.4-12.3-4.7c-2.4,1.4-2.9,12.5-0.4,17.5c0,0.1-0.1,0.1-0.1,0.2c-0.2,0.4-0.3,0.7-0.5,1.1
	c0,0.1-0.1,0.2-0.1,0.3c-0.2,0.5-0.4,1-0.6,1.4c0,0.1-0.1,0.2-0.1,0.3c-0.1,0.4-0.3,0.8-0.4,1.2c0,0.1-0.1,0.3-0.1,0.5
	c-0.1,0.4-0.2,0.7-0.3,1.1c0,0.1-0.1,0.3-0.1,0.4c-0.1,0.5-0.2,1-0.3,1.5c0,0.1,0,0.1,0,0.2c-0.1,0.4-0.1,0.8-0.2,1.3
	c0,0.2,0,0.3,0,0.5c0,0.3-0.1,0.7-0.1,1c0,0.1,0,0.3,0,0.4c0,0.5,0,1,0,1.4c0,12.8,12.4,20.3,28.3,20.3s28.3-7.6,28.3-20.3
	C351.4,38.7,351.4,38.2,351.4,37.8z"/>
<g>
	<path class="st0" d="M45.2,75.9c0-1.1,0.1-2.3,0.3-3.4c-0.5,0.9-1.2,2-1.8,2.7c-0.2,0.3-0.5,0.4-0.8,0.4c-0.2,0-0.5-0.1-0.7-0.3
		c-0.3-0.2-0.4-0.5-0.4-0.8c0-0.2,0.1-0.4,0.2-0.6c2.7-3,4.5-6.4,5.6-10.5c0.1-0.5,0.4-0.7,0.9-0.7c0.1,0,0.3,0,0.4,0
		c0.5,0.1,0.8,0.4,0.8,0.8c0,0.1,0,0.2,0,0.3c-0.5,1.8-1.3,3.7-2.3,5.7v16.9c0,0.5-0.4,0.8-1,0.8c-0.6,0-1-0.3-1-0.8L45.2,75.9
		L45.2,75.9z M52.9,72.5c-1.5,0-2.1-0.6-2.1-1.9V66c0-1.3,0.7-2,2.2-2h10c1.5,0,2.1,0.6,2.1,2v4.7c0,1.3-0.7,1.9-2.1,1.9h-4.3v2.6
		H66c0.4,0,0.7,0.4,0.7,0.9c0,0.5-0.3,1-0.7,1h-6.5c2,2.8,4.5,4.8,7.1,6.2c0.4,0.2,0.6,0.5,0.6,0.9c0,0.2-0.1,0.4-0.2,0.6
		c-0.2,0.4-0.5,0.6-0.9,0.6c-0.2,0-0.4-0.1-0.6-0.2c-2.8-1.5-5.7-4.2-7.1-7.2c0.1,0.7,0.2,1.7,0.2,2.4v6.3c0,0.5-0.3,0.8-1,0.8
		c-0.6,0-1-0.3-1-0.8v-6.3c0-0.8,0.1-1.6,0.2-2.4c-1.5,3.3-4.2,5.7-7,7.3c-0.2,0.1-0.4,0.2-0.6,0.2c-0.3,0-0.7-0.2-0.9-0.5
		c-0.2-0.2-0.2-0.4-0.2-0.6c0-0.3,0.2-0.7,0.5-0.8c2.4-1.3,5-3.3,7-6.4h-6.1c-0.5,0-0.7-0.4-0.7-1c0-0.5,0.3-0.9,0.7-0.9h7v-2.6
		C56.6,72.5,52.9,72.5,52.9,72.5z M62.3,70.7c0.5,0,0.7-0.1,0.7-0.6v-3.6c0-0.5-0.2-0.6-0.7-0.6h-8.7c-0.5,0-0.8,0.2-0.8,0.7v3.6
		c0,0.5,0.3,0.6,0.7,0.6L62.3,70.7L62.3,70.7z"/>
	<path class="st0" d="M79.4,67.3c0.4,0,0.7,0.3,0.7,0.9c0,0.5-0.3,0.9-0.7,0.9h-7.2c-0.5,0-0.7-0.4-0.7-0.9s0.2-0.9,0.7-0.9H79.4z
		 M72.9,73c-0.4,0-0.7-0.4-0.7-0.9c0-0.4,0.2-0.8,0.7-0.8h5.7c0.4,0,0.7,0.4,0.7,0.8c0,0.5-0.2,0.9-0.7,0.9H72.9z M72.9,76.8
		c-0.4,0-0.7-0.4-0.7-0.9c0-0.4,0.2-0.8,0.7-0.8h5.7c0.4,0,0.7,0.4,0.7,0.8c0,0.5-0.2,0.9-0.7,0.9H72.9z M79.5,84.9
		c0,1.3-0.6,1.9-2,1.9h-3.3c-1.3,0-2-0.6-2-1.9v-4.2c0-1.3,0.6-1.9,2-1.9h3.3c1.3,0,2,0.5,2,1.9V84.9z M78.7,63.4
		c0.4,0,0.7,0.3,0.7,0.9c0,0.5-0.2,0.9-0.7,0.9h-5.8c-0.4,0-0.7-0.4-0.7-0.9c0-0.5,0.2-0.8,0.7-0.8C72.9,63.4,78.7,63.4,78.7,63.4z
		 M76.9,85.1c0.5,0,0.7-0.1,0.7-0.6v-3.6c0-0.5-0.2-0.6-0.7-0.6h-2.2c-0.4,0-0.7,0.1-0.7,0.6v3.6c0,0.5,0.3,0.6,0.7,0.6H76.9z
		 M94.6,74.2c0.4,0,0.5,0.3,0.5,0.7c0,0.3-0.1,0.6-0.5,0.6h-4.8V77h5.7c0.4,0,0.6,0.3,0.6,0.7s-0.2,0.7-0.6,0.7H83.7
		c-1.4,0-2.1-0.5-2.1-1.9v-2.9c0-0.5,0-0.9,0.1-1.3c-0.3,0.4-0.6,0.7-0.9,1.1c-0.2,0.2-0.4,0.3-0.7,0.3c-0.2,0-0.4-0.1-0.6-0.3
		c-0.2-0.2-0.2-0.4-0.2-0.6s0.1-0.4,0.3-0.7c1.2-1.2,2.5-2.9,3.2-4.6c0.1-0.3,0.4-0.5,0.7-0.5c0.1,0,0.2,0,0.3,0.1
		c0.4,0.1,0.6,0.3,0.6,0.6c0,0.1-0.1,0.3-0.1,0.5c-0.1,0.2-0.2,0.4-0.3,0.6c0.3,0,0.7-0.1,1.1-0.1H88c0.3-0.4,0.5-0.9,0.7-1.3
		c0.1-0.3,0.3-0.4,0.7-0.4c0.1,0,0.2,0,0.4,0.1c0.4,0.1,0.6,0.3,0.6,0.6c0,0.1,0,0.2-0.1,0.2c-0.1,0.3-0.3,0.6-0.5,0.8h5.3
		c0.4,0,0.6,0.3,0.6,0.7s-0.2,0.7-0.6,0.7h-5.4v1.3h4.8c0.4,0,0.5,0.3,0.5,0.7c0,0.4-0.1,0.6-0.5,0.6h-4.8v1.3L94.6,74.2L94.6,74.2z
		 M81.2,81.2c-0.4,0-0.6-0.3-0.6-0.7c0-0.4,0.2-0.7,0.6-0.7h11.4c0.9,0,1.3,0.6,1.3,1.1c0,0.4-0.2,0.8-0.5,1.1c-1,1-2.2,1.8-3.4,2.5
		c1.8,0.6,3.7,1,5.6,1.2c0.5,0.1,0.8,0.4,0.8,0.8c0,0.1,0,0.2,0,0.2c-0.1,0.5-0.3,0.8-0.8,0.8c0,0-0.1,0-0.1,0
		c-2.3-0.2-4.9-1-7.2-2.1c-2.4,1.1-5,1.7-7.7,2.2c-0.1,0-0.1,0-0.1,0c-0.4,0-0.7-0.2-0.8-0.7c0-0.1,0-0.2,0-0.3
		c0-0.4,0.2-0.7,0.6-0.7c2.2-0.3,4.3-0.8,6.2-1.5c-1.3-0.8-2.6-1.9-3.4-3.1H81.2z M95.5,64.5c0.4,0,0.7,0.3,0.7,0.8
		c0,0.5-0.2,0.8-0.7,0.8H92V67c0,0.4-0.3,0.7-0.9,0.7c-0.5,0-0.9-0.2-0.9-0.7v-0.9h-4.3v0.9c0,0.4-0.3,0.7-0.9,0.7
		c-0.6,0-0.9-0.2-0.9-0.7v-0.9h-3.1c-0.4,0-0.7-0.3-0.7-0.8c0-0.5,0.2-0.8,0.7-0.8h3.1v-1.2c0-0.4,0.4-0.7,0.9-0.7
		c0.6,0,0.9,0.2,0.9,0.7v1.2h4.3v-1.2c0-0.5,0.4-0.7,0.9-0.7c0.6,0,0.9,0.2,0.9,0.7v1.2H95.5z M84.1,70.3c-0.4,0-0.7,0.2-0.7,0.6
		v0.7h4.8v-1.3H84.1z M88.2,72.9h-4.8v1.3h4.8V72.9z M83.4,75.6v0.8c0,0.5,0.2,0.6,0.7,0.6h4.1v-1.4H83.4z M84.9,81.2
		c0.9,1,2,1.8,3.2,2.4c1.2-0.6,2.2-1.2,3.2-2c0.2-0.1,0.2-0.2,0.2-0.3c0-0.1-0.1-0.2-0.3-0.2H84.9z"/>
	<path class="st0" d="M104.4,69.4c-0.8,0.7-1.7,1.3-2.5,1.9c-0.2,0.1-0.3,0.2-0.5,0.2c-0.3,0-0.6-0.2-0.8-0.5
		c-0.1-0.2-0.2-0.4-0.2-0.6c0-0.3,0.1-0.6,0.4-0.7c0.9-0.6,1.9-1.2,2.8-2c-0.5-1-1.1-1.9-1.9-2.8c-0.1-0.2-0.2-0.4-0.2-0.6
		c0-0.3,0.1-0.5,0.4-0.7c0.2-0.2,0.4-0.2,0.7-0.2c0.2,0,0.5,0.1,0.6,0.3c0.7,0.9,1.3,1.8,1.8,2.7c0.9-0.9,1.7-1.9,2.4-2.9
		c0.2-0.3,0.4-0.4,0.7-0.4c0.2,0,0.4,0.1,0.6,0.2c0.3,0.2,0.4,0.4,0.4,0.7c0,0.2-0.1,0.4-0.2,0.6c-0.9,1.2-2,2.4-3.1,3.6
		c1.2,2.8,1.6,6.1,1.6,10.8c0,2.9-0.3,5-0.7,6.2c-0.5,1.4-1.5,2-2.7,2c-1,0-1.7-0.1-2.4-0.3c-0.4-0.1-0.5-0.4-0.5-0.8
		c0-0.1,0-0.3,0.1-0.4c0.1-0.4,0.4-0.6,0.8-0.6c0.1,0,0.2,0,0.2,0c0.6,0.2,1.1,0.3,1.5,0.3c0.7,0,1.1-0.3,1.3-1.2
		c0.3-0.9,0.5-2.9,0.5-5.1c0-0.9,0-1.8-0.1-2.6c-1,1.2-2.3,2.6-3.5,3.4c-0.2,0.2-0.4,0.2-0.6,0.2c-0.3,0-0.6-0.2-0.8-0.4
		c-0.1-0.2-0.2-0.4-0.2-0.6c0-0.3,0.1-0.6,0.4-0.8c1.5-1.1,3.2-2.6,4.5-4.3C105.2,72.2,104.9,70.8,104.4,69.4z M114.6,70.1
		c0,0.5-0.3,0.7-1,0.7c-0.6,0-1-0.2-1-0.7v-2.2h-3.4c-0.5,0-0.7-0.4-0.7-0.9c0-0.5,0.3-0.9,0.7-0.9h3.4v-2.5c0-0.5,0.4-0.8,1-0.8
		c0.6,0,1,0.3,1,0.8v2.5h4.5v-2.5c0-0.5,0.4-0.7,0.9-0.7c0.6,0,1,0.3,1,0.7v2.5h3.6c0.5,0,0.7,0.4,0.7,0.9c0,0.5-0.2,0.9-0.7,0.9
		H121v2.2c0,0.5-0.4,0.8-1,0.8c-0.6,0-0.9-0.3-0.9-0.8v-2.2h-4.5C114.5,67.9,114.5,70.1,114.6,70.1z M122.2,71.8
		c1.5,0,2.2,0.6,2.2,2.1v10.7c0,1.4-0.7,2-2.2,2h-10.6c-1.5,0-2.2-0.6-2.2-2V73.8c0-1.4,0.7-2.1,2.2-2.1H122.2z M115.8,73.6h-3.6
		c-0.5,0-0.8,0.2-0.8,0.7v3.6h4.4C115.8,77.9,115.8,73.6,115.8,73.6z M115.8,79.6h-4.4V84c0,0.5,0.3,0.7,0.8,0.7h3.6V79.6z
		 M122.5,74.2c0-0.5-0.3-0.7-0.8-0.7h-4v4.3h4.8V74.2z M121.7,84.7c0.5,0,0.8-0.2,0.8-0.7v-4.4h-4.8v5.1L121.7,84.7L121.7,84.7z"/>
	<path class="st0" d="M136.5,64.5c0.1-0.7,0.5-0.9,1-0.9c0.1,0,0.2,0,0.3,0c0.6,0.1,0.9,0.4,0.9,0.9c0,0.1,0,0.2,0,0.2
		c-0.2,1.5-0.6,3.1-0.9,4.5c0.8,0,1.4-0.1,2-0.1c3.6,0,5.2,1.9,5.2,6c0,2.6-0.4,5.2-0.9,7.1c-0.7,2.6-2.3,3.6-4.4,3.6
		c-1.3,0-2.8-0.3-3.9-1c-0.4-0.2-0.6-0.6-0.6-1c0-0.2,0.1-0.4,0.1-0.5c0.2-0.4,0.5-0.6,0.9-0.6c0.2,0,0.4,0.1,0.7,0.2
		c0.8,0.4,1.8,0.7,2.8,0.7c1.1,0,1.8-0.5,2.3-2.2c0.4-1.5,0.8-4,0.8-6.4c0-2.9-0.8-3.9-3.3-3.9c-0.9,0-1.6,0.1-2.3,0.1
		c-0.4,1.5-0.9,3.1-1.4,4.6c-1.2,3.6-2.7,6.8-4.3,9.4c-0.3,0.4-0.6,0.7-1,0.7c-0.2,0-0.4-0.1-0.6-0.2c-0.4-0.2-0.6-0.6-0.6-0.9
		c0-0.2,0.1-0.4,0.2-0.7c1.6-2.6,3-5.6,4.2-8.9c0.4-1.2,0.9-2.5,1.2-3.8c-1.4,0.1-3.2,0.4-4.8,0.6c-0.1,0-0.2,0-0.2,0
		c-0.4,0-0.8-0.3-0.9-0.8c0-0.1,0-0.1,0-0.2c0-0.5,0.3-0.9,0.9-1c1.6-0.2,3.8-0.5,5.5-0.6C135.9,67.8,136.2,66.2,136.5,64.5z
		 M145.7,68.4c0-0.4,0.2-0.7,0.6-0.9c0.2-0.1,0.4-0.2,0.6-0.2c0.4,0,0.7,0.2,1,0.5c2,2.6,3.9,6.4,4.8,9.4c0.1,0.2,0.1,0.3,0.1,0.5
		c0,0.4-0.2,0.8-0.7,1c-0.2,0.1-0.3,0.1-0.5,0.1c-0.4,0-0.9-0.3-1-0.8c-0.9-2.8-2.6-6.4-4.6-9.1C145.7,68.8,145.7,68.6,145.7,68.4z
		 M148.3,63.7c0.3,0,0.5,0.1,0.7,0.3c0.8,0.8,1.8,2.1,2.3,3c0.1,0.2,0.2,0.3,0.2,0.7c0,0.4-0.4,0.7-0.9,0.7c-0.3,0-0.5-0.1-0.7-0.4
		c-0.6-1-1.4-2.1-2.1-2.9c-0.2-0.2-0.3-0.4-0.3-0.6C147.5,64.1,147.8,63.7,148.3,63.7z M151.2,62c0.3,0,0.5,0.1,0.7,0.3
		c0.7,0.7,1.7,2,2.2,2.9c0.1,0.2,0.2,0.4,0.2,0.7c0,0.3-0.3,0.7-0.8,0.7c-0.3,0-0.5-0.1-0.7-0.4c-0.6-1-1.3-2-2-2.8
		c-0.2-0.2-0.3-0.4-0.3-0.7C150.4,62.3,150.8,62,151.2,62z"/>
	<path class="st0" d="M161.6,85.5c-2.1,0-3.6-1.5-3.6-4.1c0-3.5,2.6-6.7,6.4-8.3c0-0.4,0-0.7,0-1.1c0-1.1,0-2.1,0.1-3.2
		c-1.5,0-3.1,0.1-4.7,0.1c-0.7,0-1-0.4-1-1c0-0.6,0.3-1,0.9-1c0.4,0,0.9,0,1.4,0c1.1,0,2.3,0,3.5,0c0-0.9,0.1-1.9,0.2-2.7
		c0.1-0.5,0.4-0.8,1-0.8c0.1,0,0.1,0,0.1,0c0.6,0,0.9,0.3,0.9,0.8c0,0,0,0.1,0,0.1c-0.1,0.8-0.1,1.6-0.2,2.5
		c3.4-0.1,6.6-0.4,9.6-0.8c0.1,0,0.1,0,0.2,0c0.5,0,0.9,0.3,1,0.9c0,0.1,0,0.1,0,0.2c0,0.5-0.3,0.9-0.9,1c-2.9,0.4-6.3,0.6-9.9,0.8
		c0,1-0.1,2-0.1,3c0,0.2,0,0.5,0,0.7c1.1-0.3,2.6-0.6,4.5-0.6c0.1-0.4,0.2-0.8,0.2-1.2c0.1-0.4,0.4-0.7,0.9-0.7c0.1,0,0.1,0,0.2,0
		c0.5,0.1,0.9,0.4,0.9,0.8c0,0.1,0,0.1,0,0.2c-0.1,0.3-0.1,0.7-0.2,1c4.3,0.7,6.5,3.3,6.5,6.8c0,4.3-3.8,7.6-9.5,7.9c0,0,0,0-0.1,0
		c-0.6,0-1-0.4-1.1-1c0,0,0-0.1,0-0.1c0-0.6,0.4-1,0.9-1c4.7-0.2,7.5-2.7,7.5-5.9c0-2.7-1.6-4.6-4.8-5c-0.9,3.3-2.6,6.5-4.5,8.4
		c0.1,0.3,0.3,0.7,0.4,1.1c0.1,0.2,0.1,0.3,0.1,0.5c0,0.4-0.2,0.7-0.6,0.9c-0.2,0.1-0.4,0.1-0.5,0.1c-0.3,0-0.6-0.2-0.7-0.4
		c-0.1-0.2-0.2-0.5-0.3-0.7C164.5,85,163,85.5,161.6,85.5z M164.5,75c-2.9,1.6-4.5,4.1-4.5,6.3c0,1.5,0.8,2.2,1.9,2.2
		c1,0,2.3-0.5,3.7-1.8C165,79.8,164.6,77.4,164.5,75z M170.5,73.5c-1.9,0-3.4,0.3-4.1,0.6c0.1,2.2,0.3,4.2,0.8,6
		C168.5,78.4,169.8,76.1,170.5,73.5z"/>
	<path class="st0" d="M187.2,81.8c-0.3,0.4-0.6,0.7-1,0.7c-0.2,0-0.5-0.1-0.7-0.2c-0.3-0.2-0.5-0.5-0.5-0.9c0-0.2,0.1-0.5,0.2-0.8
		c1.8-3.1,3.6-6.9,4.7-10.5c-1,0.1-2,0.1-3.1,0.1c-0.3,0-0.7,0-1,0c-0.6,0-0.9-0.4-0.9-1c0-0.6,0.4-1,1-1c0.4,0,0.7,0,1.1,0
		c1.1,0,2.3,0,3.5-0.1c0.4-1.3,0.7-2.6,1-4c0.1-0.6,0.4-0.9,1-0.9c0.1,0,0.2,0,0.3,0c0.6,0.1,0.9,0.4,0.9,0.9c0,0.1,0,0.2,0,0.3
		c-0.2,1.1-0.5,2.2-0.8,3.4c1.3-0.1,2.6-0.2,3.7-0.4c0.1,0,0.2,0,0.2,0c0.5,0,0.9,0.3,1,0.9c0,0.1,0,0.1,0,0.2c0,0.5-0.3,0.9-1,1
		c-1.4,0.2-2.9,0.3-4.5,0.5C190.9,74.1,189.2,78.3,187.2,81.8z M207.3,82.4c0.3,0.3,0.4,0.6,0.4,0.9c0,0.3-0.1,0.5-0.3,0.7
		c-0.2,0.2-0.5,0.4-0.8,0.4s-0.6-0.1-0.8-0.3c-1-1-2.3-2.1-3.4-2.8c0.1,0.3,0.1,0.7,0.1,0.9c-0.1,2.9-2,4.2-5.6,4.2
		c-3.3,0-5.5-1.8-5.5-4.2c0-2.6,2.3-4.4,5.6-4.4c1.1,0,2.2,0.2,3.3,0.4c-0.2-1.5-0.3-3.6-0.3-5.3c0-0.8,0.4-1.1,1-1.1
		c0.6,0,1.1,0.3,1.1,1.1c0,2.3,0.1,4.1,0.3,6C204.1,79.8,205.9,81.1,207.3,82.4z M196.9,79.7c-2.1,0-3.5,1-3.5,2.5s1.3,2.3,3.5,2.3
		c2.3,0,3.5-0.8,3.5-2.7c0-0.4,0-0.8-0.1-1.3C199.2,79.9,198,79.7,196.9,79.7z M206.9,69.9c0.4,0.2,0.5,0.6,0.5,1
		c0,0.2-0.1,0.4-0.2,0.6c-0.2,0.3-0.6,0.5-0.9,0.5c-0.2,0-0.4-0.1-0.7-0.2c-1.6-1.1-3.6-2.1-5.6-2.9c-0.3-0.1-0.5-0.4-0.5-0.8
		c0-0.2,0.1-0.4,0.2-0.6c0.2-0.4,0.6-0.6,1-0.6c0.2,0,0.3,0,0.5,0.1C203.3,67.8,205.4,68.9,206.9,69.9z"/>
	<path class="st0" d="M214.1,70.1c-0.2,0-0.3,0-0.5,0c-0.6,0-1-0.4-1-1c0,0,0-0.1,0-0.1c0-0.6,0.3-1,1-1c1.4,0,3.2,0,4.9-0.1
		c0.3-1.2,0.6-2.5,0.8-3.7c0.1-0.6,0.4-0.8,1-0.8c0.1,0,0.2,0,0.2,0c0.6,0,1,0.5,1,0.9c0,0.1,0,0.1,0,0.2c-0.2,1-0.4,2.1-0.7,3.3
		c1.8-0.2,3.5-0.4,4.9-0.6c0.1,0,0.2,0,0.3,0c0.5,0,0.9,0.3,1,0.8c0,0.1,0,0.2,0,0.3c0,0.5-0.3,0.9-0.8,1c-1.7,0.3-3.8,0.5-5.9,0.7
		c-1.3,5.3-3.1,10.8-5.2,15.1c-0.2,0.5-0.6,0.7-1,0.7c-0.2,0-0.4-0.1-0.6-0.2c-0.4-0.2-0.6-0.5-0.6-1c0-0.2,0.1-0.4,0.2-0.7
		c1.9-4,3.7-9.1,5-13.9C216.7,70.1,215.3,70.1,214.1,70.1z M223.1,81.3c0,0.9,0.4,1.5,1.2,1.9c0.8,0.4,2,0.5,3.6,0.5
		c2,0,4.2-0.2,5.8-0.5c0.1,0,0.2,0,0.4,0c0.6,0,0.9,0.3,1,0.8c0,0.1,0,0.2,0,0.3c0,0.5-0.3,1-1,1.1c-1.6,0.4-3.7,0.6-6,0.6
		c-2.1,0-3.8-0.3-4.9-0.8c-1.5-0.8-2.1-1.9-2.1-3.6c0-1.2,0.6-2.6,1.6-3.6c0.2-0.2,0.5-0.3,0.7-0.3c0.2,0,0.4,0.1,0.6,0.2
		c0.3,0.2,0.4,0.5,0.4,0.8c0,0.2-0.1,0.4-0.3,0.6C223.5,79.9,223.1,80.6,223.1,81.3z M233,70.9c0.7,0,1,0.5,1,1.1s-0.4,1-1,1
		c0,0-0.1,0-0.1,0c-0.7,0-1.6,0-2.4,0c-1.9,0-4.4,0.2-6.2,0.6c-0.1,0-0.2,0-0.2,0c-0.6,0-1-0.3-1-0.9c0-0.1,0-0.1,0-0.2
		c0-0.5,0.3-0.9,0.9-1c2-0.4,4.6-0.6,6.8-0.6C231.4,70.9,232.2,70.9,233,70.9z"/>
	<path class="st0" d="M250.4,78c-0.9,2.7-1.7,3.9-2.6,4.8c-0.9,0.8-2,1.2-3.1,1.2c-2.8,0-5-2.7-5-7.1c0-6.6,4.6-11.4,11.9-11.4
		c6.3,0,10.4,4.1,10.4,9.9c0,3.7-1.6,6.6-4.4,8.3c-1.5,1-3.4,1.6-5.6,1.9c-0.1,0-0.2,0-0.3,0c-0.6,0-1-0.3-1.1-0.9
		c0-0.1,0-0.2,0-0.3c0-0.5,0.3-0.9,1-1c1.9-0.3,4-0.9,5.3-1.9c1.7-1.2,2.9-3.4,2.9-6.2c0-4.5-3-7.8-7.6-7.9
		C251.9,71.4,251.4,75.1,250.4,78z M241.9,76.8c0,3.2,1.4,4.9,2.8,4.9c0.6,0,1.2-0.2,1.8-0.8c0.6-0.6,1.2-1.7,1.8-3.6
		c0.8-2.5,1.5-6.1,1.7-9.8C245.1,67.9,241.9,71.6,241.9,76.8z"/>
	<path class="st0" d="M283.4,66.2c1.6,0,2.4,0.7,2.4,2.3v15.9c0,1.6-0.9,2.2-2.4,2.2h-13.8c-1.6,0-2.4-0.7-2.4-2.2V68.5
		c0-1.6,0.8-2.3,2.4-2.3h4.1c0.5-0.9,0.9-1.8,1.3-3c0.1-0.4,0.4-0.6,0.9-0.6c0.2,0,0.3,0,0.5,0c0.5,0.1,0.8,0.4,0.8,0.7
		c0,0.1,0,0.2-0.1,0.4c-0.4,0.9-0.7,1.7-1.1,2.4H283.4z M283.7,72.2v-3.4c0-0.6-0.3-0.8-0.9-0.8h-12.8c-0.6,0-0.9,0.2-0.9,0.8v3.4
		H283.7z M283.7,78.2v-4.1h-14.5v4.1H283.7z M269.2,83.9c0,0.6,0.3,0.8,0.9,0.8h12.8c0.6,0,0.9-0.2,0.9-0.8v-3.8h-14.5L269.2,83.9
		L269.2,83.9z"/>
	<path class="st0" d="M300.8,73.2c-2.2,0.4-4.5,0.8-6.7,1c0,0-0.1,0-0.1,0c-0.5,0-0.9-0.3-0.9-0.9c0-0.1,0-0.1,0-0.2
		c0-0.5,0.3-0.8,0.8-0.8c5.4-0.4,11.6-1.8,15.5-3.4c0.2-0.1,0.4-0.1,0.6-0.1c0.3,0,0.6,0.1,0.8,0.5c0.1,0.2,0.2,0.4,0.2,0.6
		c0,0.3-0.2,0.7-0.7,0.8c-2.1,0.8-4.7,1.6-7.5,2.2v3.6l11.9-1.4c0,0,0,0,0.1,0c0.4,0,0.7,0.4,0.8,0.9c0,0.1,0,0.1,0,0.1
		c0,0.5-0.3,0.8-0.7,0.9l-12,1.4v5.5c0,0.6,0.1,0.8,0.9,1c0.7,0.1,1.9,0.2,3.9,0.2c4,0,4.6-0.2,5-0.9c0.3-0.5,0.5-1.4,0.5-2.4
		c0-0.5,0.4-0.8,0.9-0.8c0,0,0.1,0,0.2,0c0.6,0.1,1,0.4,1,1c0,0,0,0,0,0.1c-0.1,1.4-0.3,2.7-0.9,3.5c-0.8,1.1-2.1,1.5-6.8,1.5
		c-2.7,0-4.2-0.1-5.1-0.4c-1.2-0.3-1.7-0.9-1.7-2.3v-5.6l-8.2,1c0,0-0.1,0-0.1,0c-0.5,0-0.8-0.4-0.8-0.9c0-0.1,0-0.1,0-0.2
		c0-0.4,0.2-0.8,0.6-0.8l8.5-1V73.2z M312.7,65.6c1.6,0,2.3,0.6,2.3,2.2v2.9c0,0.5-0.4,0.8-1.1,0.8c-0.6,0-1.1-0.3-1.1-0.8v-2.5
		c0-0.6-0.3-0.7-0.8-0.7h-17c-0.5,0-0.8,0.2-0.8,0.7v2.5c0,0.5-0.5,0.8-1.1,0.8c-0.6,0-1-0.3-1-0.8v-2.9c0-1.5,0.7-2.2,2.3-2.2h8
		v-2.1c0-0.5,0.4-0.7,1-0.7s1,0.2,1,0.7v2.1H312.7z"/>
	<path class="st0" d="M325.5,73.6c2.1-1.5,3.6-2.2,5.2-2.2c1.9,0,3.3,0.8,3.7,3.1c2.4-0.8,4.7-1.6,6.5-2.1c0.2,0,0.3-0.1,0.5-0.1
		c0.5,0,0.8,0.2,1,0.7c0,0.2,0,0.3,0,0.4c0,0.5-0.3,0.8-0.9,1c-1.9,0.5-4.4,1.2-7,2.1c0,1,0.1,1.9,0.1,2.8c0,0.5,0,1,0,1.5
		c0,0.7-0.5,1-1,1c-0.6,0-1-0.3-1-1c0-0.7,0-1.6,0-2.4c0-0.4,0-0.9,0-1.3c-3.7,1.4-5.4,3-5.4,4.7c0,1.6,1.7,2.4,5.5,2.4
		c2.5,0,5.2-0.2,7.2-0.6c0.1,0,0.2,0,0.4,0c0.5,0,0.9,0.3,1,0.8c0,0.1,0,0.2,0,0.3c0,0.6-0.4,1-1,1.1c-2,0.3-4.6,0.6-7.4,0.6
		c-5,0-7.8-1.4-7.8-4.4c0-2.5,2.4-5,7.4-6.8c-0.2-1.6-1-2.1-2.1-2.1c-2.3,0-5.2,1.8-8.4,5c-0.2,0.3-0.6,0.4-0.9,0.4
		c-0.3,0-0.5-0.1-0.7-0.3c-0.2-0.2-0.3-0.5-0.3-0.8c0-0.3,0.1-0.6,0.4-0.8c2.3-2.1,4.6-4.9,6.3-7.6c-0.4,0-0.8,0-1.2,0
		c-1.3,0-2.8,0-4-0.1c-0.6,0-0.9-0.4-0.9-1c0,0,0-0.1,0-0.1c0-0.5,0.4-1,1-1c0,0,0,0,0.1,0c1.2,0.1,3,0.1,4.7,0.1c0.5,0,1,0,1.5,0
		c0.5-1,1-1.9,1.3-2.9c0.2-0.6,0.6-0.8,1-0.8c0.1,0,0.2,0,0.4,0c0.5,0.1,0.8,0.4,0.8,0.8c0,0.1,0,0.3-0.1,0.4
		c-0.3,0.8-0.7,1.5-1.1,2.3c2.3-0.1,5.4-0.4,8.3-0.8c0.1,0,0.2,0,0.2,0c0.5,0,0.9,0.3,1,0.8c0,0.1,0,0.1,0,0.2c0,0.5-0.3,0.9-0.9,1
		c-3.3,0.5-6.7,0.8-9.7,0.8c-1,1.8-2.3,3.3-3.6,4.5L325.5,73.6z"/>
	<path class="st0" d="M358.7,66.4c-0.5-1-1-2-1.4-2.6c-0.1-0.1-0.1-0.3-0.1-0.4c0-0.3,0.2-0.6,0.6-0.7c0.2,0,0.3-0.1,0.5-0.1
		c0.3,0,0.6,0.1,0.8,0.5c0.5,0.7,1.2,2.1,1.6,3.4h3c0.7-1,1.4-2.3,1.9-3.2c0.2-0.3,0.5-0.5,0.8-0.5c0.2,0,0.3,0,0.5,0.1
		c0.4,0.2,0.6,0.4,0.6,0.8c0,0.1,0,0.3-0.1,0.5c-0.5,0.8-1,1.7-1.6,2.4h4.3c0.5,0,0.8,0.3,0.8,0.8c0,0.5-0.2,0.8-0.8,0.8H351
		c-0.8,0-1.1,0.2-1.1,1c0,3.2,0,6.3-0.2,9.3c-0.2,3.2-1,6.1-1.8,8c-0.2,0.4-0.5,0.6-0.9,0.6c-0.2,0-0.4-0.1-0.6-0.1
		c-0.4-0.2-0.6-0.5-0.6-0.8c0-0.2,0-0.3,0.1-0.5c0.9-1.8,1.5-4.6,1.7-7.3c0.2-2,0.2-4.1,0.2-6.3c0-1,0-2.1,0-3.2
		c0-1.5,0.8-2.2,2.3-2.2h2.4c-0.5-0.9-1.1-1.7-1.5-2.4c-0.1-0.1-0.1-0.2-0.1-0.3c0-0.3,0.2-0.6,0.6-0.7c0.2,0,0.3-0.1,0.5-0.1
		c0.3,0,0.6,0.1,0.8,0.4c0.6,0.9,1.3,2,1.9,3.2L358.7,66.4L358.7,66.4z M360.7,72.9c0.4,0,0.7,0.3,0.7,0.7c0,0.4-0.2,0.7-0.7,0.7
		h-1.1v12.4c0,0.4-0.4,0.7-0.9,0.7s-0.9-0.2-0.9-0.7v-2.5c-2.3,0.6-4.8,1-7.3,1.3c0,0-0.1,0-0.1,0c-0.5,0-0.8-0.3-0.8-0.8
		c0-0.1,0-0.1,0-0.2c0-0.4,0.3-0.8,0.7-0.8c0.5,0,1-0.1,1.5-0.1v-9.3h-0.7c-0.4,0-0.7-0.3-0.7-0.7c0-0.5,0.2-0.7,0.7-0.7h3.9v-1.8
		h-3c-0.4,0-0.6-0.4-0.6-0.8c0-0.4,0.2-0.7,0.6-0.7h8c0.4,0,0.6,0.3,0.6,0.7c0,0.4-0.2,0.8-0.6,0.8h-3.2v1.8L360.7,72.9L360.7,72.9z
		 M353.6,74.4v1.9h4.2v-1.9H353.6z M353.6,79.6h4.2v-1.9h-4.2V79.6z M353.6,83.5c1.4-0.2,2.8-0.5,4.2-0.8V81h-4.2V83.5z M369.1,73.9
		c-0.2,2.7-0.9,5.5-2.3,7.8c1.1,1.4,2.4,2.6,4,3.7c0.2,0.2,0.4,0.4,0.4,0.8c0,0.2-0.1,0.5-0.2,0.7c-0.2,0.3-0.5,0.4-0.8,0.4
		c-0.2,0-0.4-0.1-0.6-0.2c-1.5-1.1-2.7-2.4-3.8-3.7c-1.1,1.4-2.5,2.7-4.2,3.8c-0.2,0.1-0.4,0.2-0.6,0.2c-0.3,0-0.6-0.1-0.8-0.5
		c-0.1-0.2-0.2-0.4-0.2-0.6c0-0.3,0.2-0.6,0.5-0.8c1.8-1.1,3.2-2.3,4.2-3.7c-0.9-1.5-1.5-3.1-2-4.8c-0.3,0.6-0.6,1.1-0.9,1.5
		c-0.2,0.3-0.4,0.4-0.7,0.4c-0.2,0-0.4-0.1-0.6-0.2c-0.2-0.2-0.3-0.4-0.3-0.7c0-0.2,0.1-0.4,0.2-0.6c1.5-1.9,2.9-5.2,3.4-7.8
		c0.1-0.5,0.4-0.7,0.9-0.7c0,0,0.1,0,0.2,0c0.5,0.1,0.8,0.4,0.8,0.8c0,0,0,0.1,0,0.1c-0.2,0.8-0.4,1.6-0.7,2.4h5.3
		c0.5,0,0.7,0.3,0.7,0.9c0,0.5-0.2,0.9-0.7,0.9L369.1,73.9L369.1,73.9z M364.3,73.9c-0.2,0.4-0.3,0.8-0.5,1.2c0.4,1.8,1,3.4,2,5
		c0.5-1,0.9-2.1,1.2-3.2c0.2-1,0.3-1.9,0.5-2.9H364.3z"/>
	<path class="st0" d="M377.9,83.1c-0.4,0-0.7-0.3-0.7-0.8c0-0.5,0.3-0.8,0.7-0.8h8.4v-1.9h-6.2c-1.5,0-2.1-0.6-2.1-1.8v-5.1
		c0-1.3,0.7-1.8,2.1-1.8h6.2v-1.7h-10.2c-0.4,0-0.7-0.3-0.7-0.8c0-0.5,0.3-0.8,0.7-0.8h10.2v-1.9c-2.7,0.2-5.5,0.3-8.2,0.3
		c-0.5,0-0.8-0.3-0.8-0.8s0.2-0.8,0.8-0.8c4.3,0,9.1-0.3,12.9-0.7c1.8-0.2,3.3-0.5,4.6-0.7c0.1,0,0.2,0,0.3,0c0.4,0,0.7,0.2,0.8,0.6
		c0,0.1,0,0.2,0,0.3c0,0.4-0.2,0.7-0.6,0.8c-1.4,0.3-3.2,0.5-5,0.7c-0.9,0.1-1.9,0.2-2.8,0.3v2h10.5c0.4,0,0.7,0.3,0.7,0.8
		c0,0.5-0.3,0.8-0.7,0.8h-10.5v1.7h6.5c1.4,0,2.1,0.5,2.1,1.8v5.1c0,1.3-0.7,1.8-2.1,1.8h-6.5v1.9h8.8c0.4,0,0.7,0.3,0.7,0.8
		c0,0.5-0.2,0.8-0.7,0.8h-8.8v2h10.6c0.5,0,0.7,0.3,0.7,0.8c0,0.5-0.2,0.9-0.7,0.9H376c-0.5,0-0.7-0.3-0.7-0.9
		c0-0.5,0.3-0.8,0.7-0.8h10.3v-2L377.9,83.1L377.9,83.1z M386.3,72.2h-5.7c-0.5,0-0.8,0.1-0.8,0.6v1.5h6.5L386.3,72.2L386.3,72.2z
		 M386.3,75.8h-6.5v1.6c0,0.5,0.3,0.6,0.8,0.6h5.7L386.3,75.8L386.3,75.8z M395,74.3v-1.5c0-0.4-0.3-0.6-0.8-0.6h-6v2.1H395z
		 M394.2,78c0.5,0,0.8-0.1,0.8-0.6v-1.6h-6.7V78H394.2z"/>
	<path class="st0" d="M425.2,66.2c-0.6,1.4-1.5,2.6-2.6,3.6c1.2,0.7,2.5,1.1,4,1.4c0.5,0.1,0.7,0.4,0.7,0.8c0,0.1,0,0.2,0,0.2
		c-0.1,0.5-0.4,0.7-0.9,0.7c-0.1,0-0.2,0-0.3,0c-1.8-0.4-3.5-1.1-5-2.1c-1.2,0.8-2.6,1.3-4.2,1.7c-0.1,0-0.3,0.1-0.4,0.1
		c-0.3,0-0.6-0.1-0.7-0.6c0-0.1,0-0.2,0-0.3c0-0.3,0.2-0.6,0.6-0.7c1.3-0.3,2.4-0.7,3.4-1.2c-0.8-0.7-1.6-1.5-2.2-2.4
		c-0.2,0.3-0.5,0.6-0.7,0.8c-0.2,0.2-0.5,0.3-0.7,0.3c-0.2,0-0.4-0.1-0.6-0.2c-0.1-0.1-0.2-0.2-0.2-0.4V68c0,1.3-0.2,2.8-0.6,3.6
		c-0.3,0.7-0.9,1.1-1.7,1.1c-0.5,0-1-0.1-1.2-0.2c-0.2-0.1-0.5-0.3-0.5-0.7c0,0,0,0,0-0.1c-0.2,0.1-0.5,0.2-0.9,0.2h-3.8
		c-1,0-1.4-0.4-1.4-1.2v-1c0-0.8,0.5-1.2,1.4-1.2h3.8c1,0,1.5,0.4,1.5,1.2v1c0,0.1,0,0.2,0,0.2c0,0,0.1,0,0.2,0c0,0,0.1,0,0.1,0
		c0.3,0.1,0.4,0.1,0.7,0.1c0.2,0,0.4-0.1,0.5-0.4c0.1-0.5,0.3-1.7,0.3-2.4c0-0.4-0.2-0.4-0.6-0.4h-7.2c-0.5,0.8-1.1,1.6-1.8,2.2
		c-0.2,0.2-0.5,0.3-0.7,0.3c-0.2,0-0.4-0.1-0.6-0.2c-0.2-0.1-0.3-0.3-0.3-0.5c0-0.2,0.1-0.4,0.3-0.6c0.6-0.6,1.7-1.9,2.2-2.8
		c0.1-0.3,0.4-0.4,0.7-0.4c0.1,0,0.2,0,0.4,0.1c0.4,0.1,0.5,0.3,0.5,0.6c0,0.1,0,0.2,0,0.2l7.1,0c1,0,1.5,0.3,1.6,1.2
		c0-0.2,0.1-0.4,0.3-0.5c1.1-1,2.2-2.6,2.8-4.1c0.1-0.3,0.4-0.5,0.7-0.5c0.1,0,0.2,0,0.4,0c0.4,0.1,0.6,0.3,0.6,0.6
		c0,0.1,0,0.2-0.1,0.3c-0.2,0.3-0.3,0.7-0.6,1.1h7.1c0.4,0,0.6,0.3,0.6,0.7c0,0.5-0.2,0.8-0.6,0.8L425.2,66.2L425.2,66.2z
		 M426.5,75.6c0.4,0,0.6,0.3,0.6,0.7c0,0.4-0.2,0.7-0.6,0.7h-22.9c-0.4,0-0.6-0.3-0.6-0.7c0-0.4,0.2-0.7,0.6-0.7H426.5z M403.7,65
		c-0.4,0-0.6-0.3-0.6-0.7s0.2-0.7,0.6-0.7h3.2v-0.5c0-0.4,0.3-0.6,0.8-0.6c0.5,0,0.8,0.2,0.8,0.6v0.5h2.8v-0.5
		c0-0.4,0.3-0.6,0.8-0.6c0.5,0,0.8,0.2,0.8,0.6v0.5h2.8c0.4,0,0.6,0.3,0.6,0.7c0,0.4-0.2,0.7-0.6,0.7h-2.8v0.4
		c0,0.4-0.3,0.6-0.8,0.6c-0.5,0-0.8-0.2-0.8-0.6V65h-2.8v0.4c0,0.4-0.3,0.6-0.8,0.6c-0.5,0-0.8-0.2-0.8-0.6V65H403.7z M422.4,82.6
		c1.4,0,1.9,0.4,1.9,1.5v1.4c0,1.1-0.6,1.5-1.9,1.5h-14.8c-1.4,0-1.9-0.4-1.9-1.5v-1.4c0-1.1,0.6-1.5,1.9-1.5H422.4z M423.6,73.4
		c0.4,0,0.5,0.3,0.5,0.6c0,0.3-0.2,0.6-0.5,0.6h-17.2c-0.3,0-0.5-0.3-0.5-0.6c0-0.4,0.2-0.6,0.5-0.6H423.6z M423.6,78
		c0.3,0,0.5,0.2,0.5,0.6c0,0.4-0.2,0.7-0.5,0.7h-17c-0.3,0-0.5-0.3-0.5-0.7c0-0.4,0.2-0.6,0.5-0.6H423.6z M423.6,80.3
		c0.3,0,0.5,0.2,0.5,0.6c0,0.4-0.2,0.6-0.5,0.6h-17c-0.3,0-0.5-0.2-0.5-0.6s0.2-0.6,0.5-0.6H423.6z M410.5,70c0-0.3-0.1-0.4-0.5-0.4
		h-2.7c-0.4,0-0.5,0.1-0.5,0.4v0.5c0,0.3,0.1,0.4,0.5,0.4h2.7c0.4,0,0.5-0.1,0.5-0.4V70z M421.8,85.6c0.5,0,0.7-0.1,0.7-0.5v-0.7
		c0-0.4-0.2-0.5-0.7-0.5h-13.5c-0.5,0-0.6,0.1-0.6,0.5v0.7c0,0.4,0.2,0.5,0.6,0.5H421.8z M418.6,66.2c0.7,1.1,1.5,2,2.5,2.7
		c0.9-0.8,1.6-1.7,2.2-2.7H418.6z"/>
	<path class="st0" d="M433.3,75.6c0-1,0.1-2.1,0.2-3.1c-0.4,0.9-0.9,1.7-1.4,2.4c-0.2,0.3-0.5,0.4-0.8,0.4c-0.2,0-0.5-0.1-0.7-0.3
		c-0.3-0.2-0.4-0.4-0.4-0.7c0-0.2,0.1-0.4,0.3-0.7c2.2-2.8,4-6.4,4.9-10.2c0.1-0.5,0.5-0.7,0.9-0.7c0.1,0,0.2,0,0.3,0
		c0.5,0.1,0.8,0.3,0.8,0.8c0,0.1,0,0.2,0,0.3c-0.5,1.8-1.1,3.7-2.1,5.5v17.3c0,0.5-0.4,0.8-1,0.8c-0.6,0-1-0.3-1-0.8L433.3,75.6
		L433.3,75.6z M454.7,69.6c0.5,0,0.8,0.4,0.8,0.9s-0.2,0.9-0.8,0.9h-14.1c-0.7,0-1.1,0.2-1.1,1c0,1.2,0,2.4,0,3.6
		c0,4.1-0.6,7.6-1.8,10.3c-0.2,0.4-0.4,0.6-0.8,0.6c-0.1,0-0.3,0-0.5-0.1c-0.4-0.2-0.6-0.4-0.6-0.8c0-0.2,0-0.3,0.1-0.5
		c1.2-2.6,1.7-5.8,1.7-9.9c0-1.1,0-2.2,0-3.4c0-1.7,0.8-2.5,2.3-2.5C440,69.6,454.7,69.6,454.7,69.6z M442.1,63.5
		c0-0.5,0.4-0.7,1-0.7c0.6,0,1,0.3,1,0.7v1.7h4.5v-1.7c0-0.5,0.4-0.7,1-0.7c0.6,0,1,0.3,1,0.7v1.7h4.2c0.5,0,0.7,0.3,0.7,0.9
		s-0.3,0.8-0.7,0.8h-4.2v1.4c0,0.4-0.4,0.7-1,0.7c-0.6,0-1-0.3-1-0.7v-1.4H444v1.4c0,0.4-0.4,0.7-1,0.7c-0.6,0-1-0.3-1-0.7v-1.4
		h-3.5c-0.5,0-0.8-0.3-0.8-0.8c0,0,0,0,0-0.1c0-0.5,0.3-0.8,0.7-0.8h3.6L442.1,63.5L442.1,63.5z M442.6,82.4v4.1
		c0,0.5-0.3,0.7-0.9,0.7c-0.6,0-0.9-0.2-0.9-0.7V75.2c0-1.5,0.7-2,2.1-2h9.3c1.5,0,2.1,0.6,2.1,2.1V85c0,1.5-0.7,2.2-2.3,2.2
		c-0.8,0-1.4-0.1-1.9-0.2c-0.3-0.1-0.6-0.3-0.6-0.8c0-0.1,0-0.1,0-0.2c0.1-0.5,0.4-0.7,0.7-0.7c0,0,0.1,0,0.1,0
		c0.4,0.1,0.8,0.1,1.2,0.1c0.7,0,0.9-0.2,0.9-0.7v-2.3h-4.2v3.9c0,0.4-0.3,0.7-0.9,0.7s-0.9-0.2-0.9-0.7v-3.9L442.6,82.4L442.6,82.4
		z M446.6,74.8h-3.3c-0.5,0-0.7,0.1-0.7,0.6v1.7h4L446.6,74.8L446.6,74.8z M446.6,78.6h-4v2.3h4V78.6z M452.6,77.1v-1.7
		c0-0.5-0.2-0.6-0.7-0.6h-3.5v2.3H452.6z M452.6,80.9v-2.3h-4.2v2.3H452.6z"/>
</g>
</svg>
