<?xml version="1.0" encoding="utf-8"?>
<!-- Generator: Adobe Illustrator 23.0.6, SVG Export Plug-In . SVG Version: 6.00 Build 0)  -->
<svg version="1.1" id="レイヤー_1" xmlns="http://www.w3.org/2000/svg" xmlns:xlink="http://www.w3.org/1999/xlink" x="0px"
	 y="0px" viewBox="0 0 458.68 87.54" style="enable-background:new 0 0 458.68 87.54;" xml:space="preserve">
<style type="text/css">
	.st0{fill:#575655;}
</style>
<path class="st0" d="M31.19,69.59c0,1.45-0.05,2.73-0.14,3.84c-0.09,1.1-0.23,2.08-0.39,2.92c-0.51,2.31-1.49,4.3-2.97,5.97
	c-2.78,3.2-6.6,4.8-11.46,4.8c-4.1,0-7.48-1.11-10.13-3.31c-2.74-2.27-4.31-5.42-4.74-9.44h7.13c0.27,1.51,0.73,2.68,1.36,3.5
	c1.47,1.91,3.62,2.87,6.44,2.87c5.2,0,7.8-3.19,7.8-9.57V49.88c-2.82,2.88-6.07,4.32-9.75,4.32c-4.19,0-7.62-1.51-10.29-4.55
	C1.35,46.58,0,42.74,0,38.13c0-4.48,1.25-8.29,3.76-11.43c2.69-3.33,6.25-4.99,10.67-4.99c3.87,0,7.09,1.44,9.66,4.32v-3.47h7.1
	V69.59z M24.37,38.01c0-2.99-0.8-5.38-2.4-7.17c-1.62-1.83-3.69-2.75-6.22-2.75c-2.69,0-4.82,1-6.38,3
	c-1.41,1.79-2.11,4.1-2.11,6.95c0,2.8,0.7,5.09,2.11,6.88c1.54,1.96,3.66,2.94,6.38,2.94s4.86-0.99,6.44-2.97
	C23.64,43.1,24.37,40.81,24.37,38.01z"/>
<path class="st0" d="M49.84,22.57v17.65c0,5.09,2.01,7.64,6.03,7.64s6.03-2.55,6.03-7.64V22.57H69v17.8c0,2.46-0.31,4.59-0.92,6.38
	c-0.59,1.6-1.61,3.04-3.06,4.32c-2.4,2.08-5.45,3.13-9.15,3.13c-3.68,0-6.72-1.04-9.12-3.13c-1.47-1.28-2.52-2.72-3.13-4.32
	c-0.59-1.43-0.88-3.56-0.88-6.38v-17.8H49.84z"/>
<path class="st0" d="M103.22,22.57h7.13v30.75h-7.13V50.1c-2.93,2.74-6.07,4.1-9.44,4.1c-4.25,0-7.77-1.54-10.54-4.61
	c-2.76-3.14-4.14-7.05-4.14-11.74c0-4.61,1.38-8.45,4.14-11.52c2.76-3.07,6.21-4.61,10.35-4.61c3.58,0,6.79,1.47,9.63,4.42V22.57z
	 M86.36,37.85c0,2.95,0.79,5.35,2.37,7.2c1.62,1.87,3.66,2.81,6.12,2.81c2.63,0,4.76-0.9,6.38-2.71c1.62-1.87,2.43-4.25,2.43-7.13
	c0-2.88-0.81-5.26-2.43-7.13c-1.62-1.83-3.72-2.75-6.31-2.75c-2.44,0-4.48,0.93-6.12,2.78C87.17,32.78,86.36,35.09,86.36,37.85z"/>
<path class="st0" d="M121.9,22.57h7.1v2.75c1.3-1.37,2.46-2.3,3.47-2.81c1.03-0.53,2.25-0.79,3.66-0.79c1.87,0,3.83,0.61,5.87,1.83
	l-3.25,6.5c-1.35-0.97-2.66-1.45-3.95-1.45c-3.87,0-5.81,2.93-5.81,8.78v15.94h-7.1V22.57z"/>
<path class="st0" d="M171.33,0h7.13v53.32h-7.13V50.1c-2.8,2.74-5.97,4.1-9.5,4.1c-4.21,0-7.7-1.54-10.48-4.61
	c-2.76-3.14-4.14-7.05-4.14-11.74c0-4.59,1.38-8.42,4.14-11.49c2.74-3.09,6.18-4.64,10.32-4.64c3.6,0,6.82,1.47,9.66,4.42V0z
	 M154.48,37.85c0,2.95,0.79,5.35,2.37,7.2c1.62,1.87,3.66,2.81,6.12,2.81c2.63,0,4.76-0.9,6.38-2.71c1.62-1.87,2.43-4.25,2.43-7.13
	c0-2.88-0.81-5.26-2.43-7.13c-1.62-1.83-3.72-2.75-6.31-2.75c-2.44,0-4.48,0.93-6.12,2.78C155.29,32.78,154.48,35.09,154.48,37.85z"
	/>
<path class="st0" d="M188.95,9.79c0-1.24,0.45-2.31,1.36-3.22c0.9-0.9,1.99-1.36,3.25-1.36c1.28,0,2.38,0.45,3.28,1.36
	c0.9,0.88,1.36,1.97,1.36,3.25c0,1.28-0.45,2.38-1.36,3.28c-0.88,0.9-1.97,1.36-3.25,1.36c-1.28,0-2.38-0.45-3.28-1.36
	C189.4,12.2,188.95,11.09,188.95,9.79z M197.12,22.57v30.75h-7.1V22.57H197.12z"/>
<path class="st0" d="M231.37,22.57h7.13v30.75h-7.13V50.1c-2.93,2.74-6.07,4.1-9.44,4.1c-4.25,0-7.77-1.54-10.54-4.61
	c-2.76-3.14-4.14-7.05-4.14-11.74c0-4.61,1.38-8.45,4.14-11.52c2.76-3.07,6.21-4.61,10.35-4.61c3.58,0,6.79,1.47,9.63,4.42V22.57z
	 M214.51,37.85c0,2.95,0.79,5.35,2.37,7.2c1.62,1.87,3.66,2.81,6.12,2.81c2.63,0,4.76-0.9,6.38-2.71c1.62-1.87,2.43-4.25,2.43-7.13
	c0-2.88-0.81-5.26-2.43-7.13c-1.62-1.83-3.72-2.75-6.31-2.75c-2.44,0-4.48,0.93-6.12,2.78C215.32,32.78,214.51,35.09,214.51,37.85z"
	/>
<path class="st0" d="M250.05,22.57h7.13v2.84c2.48-2.46,5.28-3.69,8.4-3.69c3.58,0,6.37,1.13,8.36,3.38
	c1.73,1.92,2.59,5.04,2.59,9.38v18.85h-7.13V36.14c0-3.03-0.42-5.12-1.26-6.28c-0.82-1.18-2.32-1.77-4.48-1.77
	c-2.36,0-4.03,0.78-5.02,2.34c-0.97,1.54-1.45,4.22-1.45,8.05v14.84h-7.13V22.57z"/>
<g>
	<path class="st0" d="M395.01,23.9v9.44c-1.62-1.98-3.07-3.34-4.36-4.07c-1.26-0.76-2.75-1.14-4.45-1.14
		c-2.67,0-4.89,0.94-6.66,2.81c-1.77,1.87-2.65,4.22-2.65,7.04c0,2.88,0.85,5.25,2.56,7.1c1.73,1.85,3.93,2.78,6.6,2.78
		c1.71,0,3.21-0.37,4.51-1.1c1.26-0.72,2.75-2.1,4.45-4.17v9.37c-2.88,1.49-5.77,2.24-8.65,2.24c-4.76,0-8.73-1.54-11.93-4.61
		c-3.2-3.09-4.8-6.93-4.8-11.52c0-4.59,1.62-8.46,4.86-11.62c3.24-3.16,7.22-4.74,11.93-4.74C389.45,21.72,392.32,22.44,395.01,23.9
		z"/>
	<path class="st0" d="M427.14,22.57h7.13v30.75h-7.13V50.1c-2.92,2.74-6.07,4.1-9.44,4.1c-4.25,0-7.77-1.54-10.54-4.61
		c-2.76-3.14-4.14-7.05-4.14-11.74c0-4.61,1.38-8.45,4.14-11.52c2.76-3.07,6.21-4.61,10.35-4.61c3.58,0,6.79,1.47,9.63,4.42V22.57z
		 M410.29,37.85c0,2.95,0.79,5.35,2.37,7.2c1.62,1.87,3.66,2.81,6.12,2.81c2.63,0,4.76-0.9,6.38-2.71c1.62-1.87,2.43-4.25,2.43-7.13
		c0-2.88-0.81-5.26-2.43-7.13c-1.62-1.83-3.73-2.75-6.31-2.75c-2.44,0-4.48,0.93-6.12,2.78C411.1,32.78,410.29,35.09,410.29,37.85z"
		/>
	<path class="st0" d="M453.15,29.2v24.12h-7.1V29.2h-3.03v-6.63h3.03V11.3h7.1v11.27h5.52v6.63H453.15z"/>
</g>
<path class="st0" d="M351.38,37.75c-0.01-0.14-0.02-0.29-0.03-0.43c-0.02-0.35-0.06-0.7-0.09-1.05c-0.02-0.15-0.03-0.3-0.05-0.45
	c-0.05-0.42-0.11-0.83-0.18-1.25c-0.01-0.07-0.02-0.14-0.03-0.21c-0.09-0.49-0.19-0.98-0.3-1.47c-0.03-0.12-0.06-0.25-0.09-0.37
	c-0.09-0.37-0.19-0.75-0.3-1.12c-0.04-0.15-0.08-0.29-0.13-0.44c-0.12-0.39-0.25-0.78-0.38-1.17c-0.03-0.1-0.06-0.19-0.1-0.29
	c-0.17-0.49-0.36-0.97-0.56-1.45c-0.04-0.09-0.08-0.18-0.12-0.27c-0.17-0.39-0.34-0.78-0.53-1.16c-0.03-0.06-0.06-0.13-0.09-0.19
	c2.51-4.95,1.95-16.14-0.4-17.5c-1.28-0.74-7.22,1.64-12.36,4.69c-0.01-0.01-0.03-0.01-0.04-0.02c-0.33-0.16-0.68-0.3-1.02-0.45
	c-0.11-0.05-0.23-0.1-0.34-0.15c-0.35-0.14-0.71-0.27-1.07-0.4c-0.12-0.04-0.24-0.09-0.36-0.13c-0.36-0.12-0.73-0.23-1.1-0.34
	c-0.13-0.04-0.25-0.08-0.38-0.12c-0.34-0.09-0.68-0.18-1.03-0.26c0,0,0-0.01,0-0.01c-0.07-0.02-0.14-0.03-0.21-0.04
	c-0.1-0.02-0.2-0.05-0.3-0.07c-0.25-0.05-0.5-0.1-0.75-0.15c-0.18-0.03-0.36-0.07-0.54-0.1c-0.1-0.02-0.2-0.04-0.3-0.06
	c-0.28-0.05-0.57-0.08-0.85-0.12c-0.13-0.02-0.25-0.04-0.38-0.06c0,0,0,0,0,0.01c-0.14-0.02-0.28-0.04-0.42-0.06
	c-0.41-0.04-0.83-0.07-1.26-0.1c-0.15-0.01-0.3-0.03-0.45-0.04c-0.06,0-0.12,0-0.17-0.01c0,0,0,0,0,0
	c-0.52-0.02-1.05-0.04-1.59-0.04s-1.06,0.01-1.59,0.04c0,0,0,0,0,0c-0.06,0-0.12,0-0.18,0.01c-0.16,0.01-0.31,0.03-0.46,0.04
	c-0.42,0.03-0.84,0.06-1.25,0.1c-0.14,0.01-0.27,0.04-0.4,0.05c0,0,0,0,0-0.01c-0.13,0.02-0.26,0.04-0.39,0.06
	c-0.29,0.04-0.58,0.07-0.87,0.12c-0.1,0.02-0.19,0.04-0.28,0.05c-0.18,0.03-0.36,0.07-0.54,0.1c-0.26,0.05-0.52,0.09-0.78,0.15
	c-0.1,0.02-0.2,0.05-0.3,0.07c-0.06,0.01-0.12,0.02-0.18,0.04c0,0,0,0,0,0.01c-0.36,0.08-0.72,0.17-1.06,0.26
	c-0.13,0.03-0.25,0.08-0.37,0.11c-0.37,0.11-0.75,0.22-1.11,0.34c-0.12,0.04-0.23,0.09-0.35,0.13c-0.36,0.13-0.72,0.26-1.07,0.4
	c-0.11,0.05-0.22,0.1-0.34,0.15c-0.35,0.15-0.69,0.29-1.03,0.45c-0.01,0.01-0.02,0.01-0.04,0.02c-5.14-3.04-11.06-5.41-12.33-4.67
	c-2.35,1.36-2.91,12.51-0.42,17.47c-0.03,0.07-0.06,0.14-0.1,0.21c-0.18,0.37-0.34,0.74-0.5,1.11c-0.05,0.11-0.09,0.21-0.14,0.32
	c-0.2,0.48-0.38,0.96-0.56,1.44c-0.04,0.1-0.07,0.2-0.1,0.3c-0.13,0.39-0.26,0.78-0.38,1.16c-0.05,0.15-0.09,0.3-0.13,0.46
	c-0.1,0.36-0.2,0.73-0.29,1.09c-0.03,0.13-0.07,0.26-0.1,0.4c-0.11,0.49-0.21,0.97-0.3,1.46c-0.01,0.07-0.02,0.14-0.03,0.21
	c-0.07,0.42-0.13,0.84-0.18,1.26c-0.02,0.15-0.03,0.3-0.05,0.45c-0.04,0.35-0.07,0.7-0.09,1.05c-0.01,0.14-0.02,0.29-0.03,0.43
	c-0.03,0.48-0.04,0.96-0.04,1.43c0,12.76,12.38,20.33,28.34,20.33c15.96,0,28.34-7.57,28.34-20.33
	C351.43,38.7,351.41,38.23,351.38,37.75z"/>
<g>
	<path class="st0" d="M45.24,75.94c0-1.06,0.11-2.26,0.27-3.4c-0.53,0.93-1.19,1.96-1.83,2.68c-0.24,0.26-0.53,0.42-0.85,0.42
		c-0.24,0-0.48-0.08-0.69-0.27c-0.27-0.24-0.4-0.5-0.4-0.8c0-0.21,0.08-0.42,0.24-0.61c2.65-3,4.49-6.37,5.6-10.48
		c0.11-0.45,0.42-0.66,0.88-0.66c0.13,0,0.27,0.03,0.4,0.05c0.5,0.13,0.8,0.42,0.8,0.85c0,0.11,0,0.19-0.05,0.29
		c-0.53,1.78-1.33,3.71-2.34,5.71v16.9c0,0.5-0.4,0.77-1.01,0.77c-0.61,0-1.01-0.27-1.01-0.77V75.94z M52.88,72.54
		c-1.46,0-2.1-0.64-2.1-1.94v-4.64c0-1.33,0.69-1.99,2.15-1.99h9.95c1.46,0,2.12,0.64,2.12,1.96v4.67c0,1.3-0.66,1.94-2.12,1.94
		h-4.35v2.63h7.43c0.45,0,0.72,0.4,0.72,0.93c0,0.5-0.27,0.96-0.72,0.96h-6.5c1.99,2.84,4.51,4.78,7.14,6.16
		c0.37,0.19,0.56,0.5,0.56,0.88c0,0.21-0.05,0.42-0.19,0.64c-0.19,0.4-0.5,0.58-0.88,0.58c-0.21,0-0.42-0.05-0.64-0.19
		c-2.76-1.51-5.73-4.17-7.11-7.24c0.11,0.74,0.19,1.65,0.19,2.41v6.34c0,0.5-0.34,0.8-0.96,0.8c-0.61,0-0.96-0.29-0.96-0.8v-6.34
		c0-0.8,0.08-1.62,0.21-2.36c-1.49,3.34-4.25,5.65-6.98,7.3c-0.21,0.11-0.4,0.16-0.61,0.16c-0.32,0-0.66-0.16-0.88-0.48
		c-0.16-0.21-0.21-0.42-0.21-0.64c0-0.34,0.19-0.66,0.53-0.85c2.44-1.33,5.04-3.34,7.03-6.37h-6.13c-0.45,0-0.74-0.45-0.74-0.96
		c0-0.53,0.29-0.93,0.74-0.93h7.03v-2.63H52.88z M62.28,70.71c0.5,0,0.74-0.13,0.74-0.64v-3.61c0-0.5-0.24-0.64-0.74-0.64h-8.73
		c-0.5,0-0.8,0.16-0.8,0.66v3.58c0,0.5,0.27,0.64,0.74,0.64H62.28z"/>
	<path class="st0" d="M79.38,67.29c0.45,0,0.72,0.34,0.72,0.88c0,0.5-0.27,0.93-0.72,0.93h-7.22c-0.48,0-0.72-0.4-0.72-0.93
		c0-0.53,0.24-0.88,0.72-0.88H79.38z M72.93,72.99c-0.45,0-0.66-0.43-0.66-0.9c0-0.45,0.21-0.85,0.66-0.85h5.68
		c0.45,0,0.66,0.37,0.66,0.85c0,0.48-0.21,0.9-0.66,0.9H72.93z M72.93,76.79c-0.45,0-0.66-0.43-0.66-0.9c0-0.45,0.21-0.85,0.66-0.85
		h5.65c0.45,0,0.66,0.37,0.66,0.85c0,0.48-0.21,0.9-0.66,0.9H72.93z M79.46,84.86c0,1.35-0.64,1.91-1.96,1.91h-3.26
		c-1.33,0-1.96-0.56-1.96-1.91v-4.25c0-1.35,0.64-1.88,1.96-1.88h3.26c1.33,0,1.96,0.53,1.96,1.88V84.86z M78.74,63.44
		c0.42,0,0.66,0.34,0.66,0.85c0,0.48-0.24,0.9-0.66,0.9h-5.79c-0.45,0-0.66-0.42-0.66-0.9c0-0.48,0.21-0.85,0.66-0.85H78.74z
		 M76.94,85.12c0.48,0,0.72-0.13,0.72-0.61V80.9c0-0.48-0.24-0.61-0.72-0.61h-2.15c-0.45,0-0.72,0.13-0.72,0.61v3.61
		c0,0.48,0.27,0.61,0.72,0.61H76.94z M94.59,74.24c0.37,0,0.48,0.32,0.48,0.69c0,0.34-0.11,0.64-0.48,0.64h-4.78v1.41h5.73
		c0.4,0,0.58,0.29,0.58,0.69c0,0.4-0.19,0.74-0.58,0.74H83.73c-1.43,0-2.12-0.5-2.12-1.86v-2.89c0-0.48,0.03-0.9,0.05-1.33
		c-0.29,0.37-0.61,0.74-0.93,1.09c-0.21,0.24-0.45,0.34-0.69,0.34c-0.21,0-0.42-0.11-0.61-0.29c-0.16-0.16-0.24-0.37-0.24-0.58
		c0-0.21,0.11-0.45,0.29-0.66c1.25-1.22,2.49-2.87,3.18-4.62c0.13-0.32,0.37-0.48,0.72-0.48c0.11,0,0.21,0.03,0.34,0.05
		c0.37,0.11,0.58,0.32,0.58,0.64c0,0.13-0.05,0.29-0.13,0.48c-0.11,0.21-0.21,0.42-0.34,0.64c0.34-0.03,0.72-0.05,1.14-0.05h3.05
		c0.29-0.45,0.53-0.93,0.72-1.33c0.11-0.27,0.32-0.37,0.66-0.37c0.11,0,0.24,0.03,0.4,0.05c0.4,0.08,0.64,0.29,0.64,0.58
		c0,0.08-0.03,0.16-0.05,0.24c-0.13,0.27-0.32,0.56-0.5,0.82h5.31c0.42,0,0.58,0.32,0.58,0.72s-0.16,0.69-0.58,0.69h-5.39v1.33h4.75
		c0.37,0,0.5,0.32,0.5,0.66c0,0.37-0.13,0.64-0.5,0.64h-4.75v1.33H94.59z M81.21,81.17c-0.42,0-0.58-0.32-0.58-0.74
		c0-0.4,0.16-0.72,0.58-0.72h11.41c0.9,0,1.33,0.56,1.33,1.14c0,0.37-0.16,0.8-0.5,1.09c-1.04,0.96-2.18,1.78-3.37,2.47
		c1.8,0.64,3.72,0.98,5.55,1.19c0.5,0.05,0.77,0.4,0.77,0.82c0,0.08,0,0.16-0.03,0.24c-0.11,0.5-0.32,0.77-0.82,0.77
		c-0.03,0-0.08,0-0.13,0c-2.26-0.24-4.86-0.96-7.19-2.07c-2.39,1.06-4.96,1.72-7.7,2.18c-0.05,0-0.08,0-0.13,0
		c-0.4,0-0.72-0.24-0.85-0.72c-0.03-0.08-0.03-0.19-0.03-0.27c0-0.37,0.21-0.69,0.64-0.74c2.18-0.29,4.27-0.8,6.16-1.51
		c-1.3-0.82-2.57-1.86-3.45-3.13H81.21z M95.46,64.5c0.45,0,0.69,0.29,0.69,0.8c0,0.48-0.24,0.77-0.69,0.77h-3.45v0.9
		c0,0.45-0.35,0.66-0.93,0.66c-0.53,0-0.93-0.21-0.93-0.66v-0.9H85.8v0.88c0,0.42-0.34,0.66-0.93,0.66c-0.56,0-0.93-0.24-0.93-0.66
		v-0.88h-3.05c-0.45,0-0.66-0.29-0.66-0.77c0-0.5,0.21-0.8,0.66-0.8h3.05v-1.19c0-0.42,0.37-0.66,0.93-0.66
		c0.58,0,0.93,0.24,0.93,0.66v1.19h4.35v-1.17c0-0.45,0.4-0.66,0.93-0.66c0.58,0,0.93,0.21,0.93,0.66v1.17H95.46z M84.05,70.29
		c-0.45,0-0.69,0.16-0.69,0.64v0.69h4.8v-1.33H84.05z M88.16,72.92h-4.8v1.33h4.8V72.92z M83.36,75.57v0.8
		c0,0.48,0.24,0.61,0.69,0.61h4.11v-1.41H83.36z M84.93,81.17c0.9,0.96,1.99,1.78,3.16,2.39c1.17-0.56,2.23-1.22,3.16-1.96
		c0.16-0.08,0.21-0.19,0.21-0.27c0-0.08-0.11-0.16-0.32-0.16H84.93z"/>
	<path class="st0" d="M104.44,69.41c-0.8,0.66-1.65,1.3-2.49,1.86c-0.16,0.11-0.34,0.16-0.5,0.16c-0.32,0-0.58-0.16-0.8-0.48
		c-0.11-0.21-0.16-0.4-0.16-0.61c0-0.29,0.13-0.58,0.4-0.74c0.93-0.56,1.88-1.25,2.79-2.02c-0.53-0.98-1.14-1.91-1.91-2.81
		c-0.13-0.19-0.21-0.37-0.21-0.56c0-0.26,0.13-0.5,0.4-0.69c0.21-0.16,0.45-0.24,0.66-0.24c0.24,0,0.48,0.11,0.64,0.32
		c0.72,0.88,1.33,1.75,1.83,2.65c0.9-0.9,1.72-1.88,2.39-2.89c0.19-0.27,0.42-0.4,0.72-0.4c0.21,0,0.42,0.08,0.64,0.24
		c0.27,0.19,0.42,0.42,0.42,0.72c0,0.16-0.05,0.37-0.19,0.56c-0.9,1.25-1.96,2.44-3.11,3.56c1.19,2.81,1.59,6.08,1.59,10.77
		c0,2.92-0.34,5.02-0.74,6.21c-0.48,1.41-1.46,1.96-2.65,1.96c-1.01,0-1.73-0.08-2.44-0.35c-0.37-0.11-0.53-0.42-0.53-0.77
		c0-0.13,0.03-0.29,0.08-0.45c0.13-0.43,0.42-0.64,0.77-0.64c0.08,0,0.16,0,0.24,0.03c0.56,0.21,1.11,0.29,1.49,0.29
		c0.66,0,1.09-0.32,1.35-1.25c0.27-0.93,0.5-2.87,0.5-5.1c0-0.93-0.03-1.8-0.05-2.6c-0.98,1.22-2.26,2.55-3.53,3.45
		c-0.19,0.16-0.4,0.24-0.58,0.24c-0.29,0-0.56-0.16-0.77-0.45c-0.13-0.19-0.21-0.4-0.21-0.61c0-0.29,0.13-0.58,0.42-0.8
		c1.54-1.06,3.18-2.55,4.46-4.33C105.21,72.22,104.92,70.77,104.44,69.41z M114.55,70.13c0,0.5-0.35,0.74-0.96,0.74
		c-0.56,0-0.96-0.24-0.96-0.74v-2.2h-3.37c-0.48,0-0.74-0.37-0.74-0.88c0-0.53,0.27-0.93,0.74-0.93h3.37v-2.49
		c0-0.5,0.4-0.77,0.96-0.77c0.61,0,0.96,0.27,0.96,0.77v2.49h4.54V63.6c0-0.48,0.37-0.74,0.93-0.74c0.61,0,0.98,0.27,0.98,0.74v2.52
		h3.61c0.5,0,0.74,0.4,0.74,0.93c0,0.5-0.24,0.88-0.74,0.88H121v2.18c0,0.5-0.37,0.77-0.98,0.77c-0.56,0-0.93-0.26-0.93-0.77v-2.18
		h-4.54V70.13z M122.22,71.77c1.49,0,2.2,0.64,2.2,2.07v10.67c0,1.38-0.72,2.02-2.2,2.02h-10.64c-1.46,0-2.18-0.64-2.18-2.02V73.84
		c0-1.43,0.72-2.07,2.18-2.07H122.22z M115.77,73.58h-3.64c-0.5,0-0.77,0.16-0.77,0.66v3.61h4.41V73.58z M115.77,79.58h-4.41v4.43
		c0,0.5,0.27,0.66,0.77,0.66h3.64V79.58z M122.46,74.24c0-0.5-0.27-0.66-0.77-0.66h-3.98v4.27h4.75V74.24z M121.69,84.67
		c0.5,0,0.77-0.16,0.77-0.66v-4.43h-4.75v5.1H121.69z"/>
	<path class="st0" d="M136.48,64.53c0.08-0.69,0.48-0.93,1.01-0.93c0.08,0,0.16,0.03,0.27,0.03c0.61,0.08,0.93,0.4,0.93,0.9
		c0,0.08,0,0.16,0,0.24c-0.21,1.51-0.56,3.08-0.9,4.54c0.77-0.03,1.41-0.05,2.04-0.05c3.64,0,5.23,1.86,5.23,6
		c0,2.55-0.37,5.18-0.93,7.09c-0.74,2.6-2.26,3.56-4.38,3.56c-1.27,0-2.76-0.35-3.85-0.96c-0.37-0.21-0.58-0.58-0.58-0.98
		c0-0.19,0.05-0.37,0.13-0.53c0.16-0.37,0.48-0.58,0.85-0.58c0.21,0,0.45,0.05,0.69,0.19c0.77,0.37,1.83,0.66,2.81,0.66
		c1.11,0,1.8-0.48,2.28-2.18c0.42-1.49,0.77-4.01,0.77-6.37c0-2.95-0.77-3.93-3.26-3.93c-0.9,0-1.62,0.05-2.28,0.11
		c-0.42,1.54-0.9,3.11-1.43,4.64c-1.25,3.58-2.68,6.79-4.3,9.42c-0.27,0.45-0.64,0.66-0.98,0.66c-0.21,0-0.42-0.08-0.61-0.19
		c-0.37-0.21-0.58-0.56-0.58-0.93c0-0.24,0.08-0.45,0.21-0.69c1.59-2.55,3.03-5.57,4.22-8.94c0.42-1.25,0.88-2.52,1.22-3.82
		c-1.35,0.11-3.24,0.37-4.75,0.58c-0.08,0.03-0.16,0.03-0.24,0.03c-0.45,0-0.82-0.29-0.9-0.85c-0.03-0.08-0.03-0.13-0.03-0.21
		c0-0.5,0.34-0.9,0.9-0.98c1.59-0.24,3.8-0.5,5.52-0.64C135.95,67.79,136.24,66.15,136.48,64.53z M145.66,68.38
		c0-0.37,0.21-0.72,0.56-0.9c0.19-0.11,0.4-0.16,0.58-0.16c0.37,0,0.72,0.16,0.96,0.48c1.96,2.6,3.87,6.42,4.78,9.45
		c0.05,0.16,0.08,0.32,0.08,0.48c0,0.45-0.24,0.82-0.66,0.96c-0.19,0.05-0.34,0.11-0.5,0.11c-0.45,0-0.85-0.27-1.01-0.82
		c-0.93-2.84-2.63-6.45-4.59-9.05C145.71,68.75,145.66,68.56,145.66,68.38z M148.26,63.71c0.29,0,0.48,0.08,0.69,0.29
		c0.82,0.82,1.78,2.1,2.28,2.97c0.08,0.16,0.19,0.34,0.19,0.69c0,0.4-0.37,0.74-0.88,0.74c-0.32,0-0.53-0.13-0.69-0.45
		c-0.56-0.98-1.35-2.07-2.1-2.89c-0.16-0.19-0.27-0.4-0.27-0.64C147.49,64.08,147.84,63.71,148.26,63.71z M151.18,62.01
		c0.29,0,0.48,0.11,0.72,0.32c0.69,0.66,1.7,2.04,2.18,2.89c0.08,0.16,0.16,0.37,0.16,0.66c0,0.32-0.32,0.74-0.82,0.74
		c-0.32,0-0.5-0.13-0.69-0.42c-0.58-1.01-1.27-2.04-1.99-2.81c-0.24-0.24-0.32-0.37-0.32-0.69
		C150.41,62.35,150.81,62.01,151.18,62.01z"/>
	<path class="st0" d="M161.59,85.47c-2.07,0-3.61-1.51-3.61-4.11c0-3.53,2.65-6.69,6.37-8.33c-0.03-0.37-0.03-0.74-0.03-1.14
		c0-1.06,0.03-2.12,0.05-3.16c-1.49,0.03-3.13,0.05-4.7,0.05c-0.69-0.03-1.01-0.4-1.01-1.04c0-0.56,0.34-0.96,0.93-0.96
		c0.45,0,0.93,0,1.38,0c1.14,0,2.31,0,3.5-0.03c0.03-0.93,0.08-1.88,0.16-2.71c0.05-0.5,0.42-0.85,1.01-0.85c0.05,0,0.08,0,0.13,0
		c0.64,0.05,0.9,0.34,0.9,0.85c0,0.03,0,0.08,0,0.13c-0.08,0.77-0.13,1.59-0.19,2.49c3.4-0.13,6.63-0.37,9.58-0.82
		c0.05,0,0.13,0,0.19,0c0.53,0,0.88,0.32,0.96,0.88c0,0.08,0,0.13,0,0.19c0,0.53-0.32,0.88-0.93,0.96c-2.95,0.4-6.32,0.64-9.95,0.77
		c-0.03,0.98-0.05,1.96-0.05,2.97c0,0.24,0,0.48,0,0.72c1.09-0.29,2.6-0.56,4.54-0.56c0.11-0.45,0.19-0.85,0.24-1.17
		c0.08-0.43,0.4-0.66,0.88-0.66c0.05,0,0.13,0,0.21,0.03c0.53,0.05,0.85,0.37,0.85,0.82c0,0.05,0,0.11,0,0.16
		c-0.05,0.32-0.13,0.66-0.21,1.01c4.33,0.66,6.53,3.27,6.53,6.82c0,4.3-3.8,7.64-9.5,7.86c-0.03,0-0.03,0-0.05,0
		c-0.64,0-1.04-0.45-1.06-1.01c0-0.03,0-0.05,0-0.05c0-0.61,0.4-0.96,0.93-0.98c4.72-0.24,7.46-2.71,7.46-5.92
		c0-2.65-1.65-4.56-4.75-4.96c-0.88,3.29-2.63,6.53-4.46,8.44c0.13,0.32,0.27,0.66,0.45,1.06c0.08,0.16,0.13,0.34,0.13,0.53
		c0,0.37-0.19,0.69-0.58,0.9c-0.19,0.08-0.37,0.13-0.53,0.13c-0.32,0-0.58-0.16-0.74-0.45c-0.11-0.21-0.21-0.48-0.32-0.72
		C164.48,85.04,163,85.47,161.59,85.47z M164.46,74.96c-2.92,1.57-4.46,4.06-4.46,6.26c0,1.46,0.77,2.18,1.86,2.18
		c0.98,0,2.31-0.48,3.74-1.75C164.99,79.79,164.59,77.4,164.46,74.96z M170.46,73.47c-1.94,0-3.37,0.34-4.11,0.64
		c0.05,2.2,0.34,4.25,0.82,5.97C168.52,78.41,169.77,76.05,170.46,73.47z"/>
	<path class="st0" d="M187.18,81.78c-0.27,0.45-0.61,0.69-0.98,0.69c-0.24,0-0.48-0.08-0.74-0.24c-0.34-0.21-0.5-0.53-0.5-0.88
		c0-0.24,0.08-0.53,0.24-0.8c1.83-3.11,3.61-6.9,4.7-10.48c-0.98,0.05-2.02,0.08-3.05,0.08c-0.32,0-0.66,0-1.01,0
		c-0.61,0-0.93-0.4-0.93-1.03c0-0.64,0.37-1.04,0.98-1.04c0.37,0,0.74,0,1.14,0c1.14,0,2.34-0.03,3.48-0.08
		c0.37-1.3,0.69-2.63,0.96-3.98c0.05-0.58,0.45-0.88,0.98-0.88c0.08,0,0.16,0,0.27,0.03c0.58,0.11,0.93,0.4,0.93,0.93
		c0,0.11,0,0.21-0.03,0.34c-0.24,1.09-0.5,2.23-0.8,3.37c1.3-0.11,2.55-0.21,3.66-0.37c0.08-0.03,0.16-0.03,0.24-0.03
		c0.53,0,0.85,0.32,0.96,0.88c0,0.05,0,0.11,0,0.16c0,0.5-0.32,0.9-0.96,1.01c-1.38,0.21-2.95,0.34-4.54,0.48
		C190.9,74.11,189.17,78.3,187.18,81.78z M207.27,82.39c0.27,0.27,0.4,0.58,0.4,0.88c0,0.27-0.11,0.53-0.29,0.74
		c-0.24,0.24-0.5,0.37-0.77,0.37c-0.27,0-0.56-0.13-0.8-0.34c-1.03-1.03-2.34-2.12-3.45-2.76c0.05,0.32,0.05,0.66,0.05,0.9
		c-0.13,2.89-1.99,4.25-5.6,4.25c-3.32,0-5.52-1.75-5.52-4.25c0-2.55,2.26-4.38,5.55-4.38c1.11,0,2.2,0.16,3.29,0.45
		c-0.16-1.49-0.29-3.58-0.29-5.31c0-0.77,0.45-1.09,1.03-1.09c0.64,0,1.09,0.34,1.09,1.09c0,2.28,0.11,4.14,0.32,6.02
		C204.06,79.82,205.95,81.06,207.27,82.39z M196.9,79.68c-2.15,0-3.5,1.01-3.5,2.47c0,1.46,1.3,2.28,3.48,2.28
		c2.26,0,3.48-0.85,3.48-2.73c0-0.42,0-0.8-0.05-1.33C199.23,79.89,198.04,79.68,196.9,79.68z M206.9,69.94
		c0.37,0.24,0.53,0.64,0.53,0.98c0,0.21-0.05,0.42-0.16,0.61c-0.21,0.32-0.56,0.5-0.9,0.5c-0.24,0-0.45-0.08-0.66-0.21
		c-1.57-1.09-3.56-2.12-5.55-2.92c-0.34-0.13-0.5-0.45-0.5-0.8c0-0.21,0.05-0.42,0.16-0.61c0.24-0.37,0.58-0.56,0.98-0.56
		c0.16,0,0.32,0.03,0.48,0.08C203.29,67.79,205.42,68.93,206.9,69.94z"/>
	<path class="st0" d="M214.07,70.13c-0.19,0-0.34,0-0.53,0c-0.64-0.03-0.96-0.4-0.96-1.04c0-0.03,0-0.05,0-0.08
		c0.03-0.58,0.34-0.98,1.01-0.98c1.43,0,3.21-0.03,4.94-0.13c0.29-1.25,0.56-2.49,0.77-3.74c0.11-0.58,0.45-0.85,1.01-0.85
		c0.08,0,0.16,0,0.24,0.03c0.61,0.05,0.96,0.45,0.96,0.93c0,0.05,0,0.13-0.03,0.21c-0.19,1.04-0.4,2.12-0.66,3.26
		c1.78-0.16,3.53-0.37,4.94-0.64c0.08-0.03,0.19-0.03,0.27-0.03c0.5,0,0.88,0.27,0.96,0.85c0.03,0.08,0.03,0.19,0.03,0.27
		c0,0.48-0.32,0.88-0.77,0.96c-1.7,0.29-3.8,0.53-5.94,0.69c-1.33,5.26-3.13,10.8-5.18,15.13c-0.24,0.48-0.61,0.72-1.01,0.72
		c-0.21,0-0.4-0.05-0.61-0.16c-0.37-0.19-0.58-0.53-0.58-0.96c0-0.19,0.05-0.42,0.16-0.66c1.94-4.01,3.74-9.05,4.99-13.91
		C216.7,70.05,215.3,70.13,214.07,70.13z M223.15,81.35c0,0.9,0.4,1.46,1.19,1.86c0.77,0.37,1.99,0.5,3.64,0.5
		c2.04,0,4.25-0.21,5.76-0.53c0.13-0.03,0.24-0.03,0.37-0.03c0.56,0,0.9,0.32,0.98,0.82c0.03,0.11,0.03,0.19,0.03,0.27
		c0,0.53-0.29,0.96-0.98,1.12c-1.57,0.37-3.74,0.56-6,0.56c-2.12,0-3.8-0.27-4.94-0.85c-1.51-0.77-2.12-1.91-2.12-3.58
		c0-1.19,0.61-2.63,1.62-3.56c0.24-0.21,0.48-0.32,0.72-0.32c0.21,0,0.4,0.08,0.58,0.19c0.27,0.16,0.42,0.48,0.42,0.77
		c0,0.21-0.08,0.42-0.27,0.61C223.47,79.87,223.15,80.56,223.15,81.35z M233.02,70.95c0.66,0.03,1.03,0.5,1.03,1.11
		s-0.4,1.03-1.01,1.03c-0.03,0-0.08,0-0.11,0c-0.69-0.03-1.62-0.03-2.36-0.03c-1.88,0-4.38,0.21-6.18,0.56
		c-0.08,0.03-0.16,0.03-0.24,0.03c-0.56,0-0.98-0.34-1.04-0.93c-0.03-0.08-0.03-0.13-0.03-0.21c0-0.48,0.29-0.9,0.85-1.01
		c1.96-0.37,4.59-0.64,6.77-0.64C231.4,70.87,232.2,70.9,233.02,70.95z"/>
	<path class="st0" d="M250.44,77.96c-0.93,2.73-1.7,3.93-2.63,4.8c-0.85,0.82-1.96,1.17-3.05,1.17c-2.76,0-4.96-2.68-4.96-7.14
		c0-6.61,4.62-11.39,11.86-11.39c6.26,0,10.4,4.09,10.4,9.93c0,3.74-1.62,6.58-4.38,8.33c-1.54,0.98-3.45,1.59-5.57,1.91
		c-0.11,0.03-0.21,0.03-0.29,0.03c-0.56,0-1.01-0.27-1.11-0.93c-0.03-0.08-0.03-0.19-0.03-0.27c0-0.53,0.34-0.93,0.96-1.04
		c1.94-0.26,3.98-0.93,5.31-1.91c1.67-1.25,2.89-3.4,2.89-6.18c0-4.49-2.95-7.75-7.64-7.91C251.95,71.4,251.37,75.12,250.44,77.96z
		 M241.95,76.76c0,3.18,1.35,4.86,2.76,4.86c0.61,0,1.22-0.21,1.78-0.77c0.58-0.56,1.19-1.7,1.83-3.64
		c0.82-2.49,1.49-6.13,1.67-9.77C245.13,67.9,241.95,71.61,241.95,76.76z"/>
	<path class="st0" d="M283.38,66.2c1.59,0,2.44,0.69,2.44,2.26v15.87c0,1.57-0.85,2.23-2.44,2.23h-13.8c-1.62,0-2.44-0.66-2.44-2.23
		V68.46c0-1.57,0.82-2.26,2.44-2.26h4.14c0.45-0.88,0.88-1.81,1.27-3c0.11-0.4,0.42-0.58,0.88-0.58c0.16,0,0.32,0.03,0.48,0.05
		c0.48,0.11,0.82,0.37,0.82,0.74c0,0.13-0.03,0.24-0.08,0.37c-0.37,0.9-0.72,1.7-1.14,2.42H283.38z M283.73,72.22v-3.37
		c0-0.58-0.27-0.77-0.85-0.77h-12.79c-0.61,0-0.88,0.19-0.88,0.77v3.37H283.73z M283.73,78.17v-4.06h-14.52v4.06H283.73z
		 M269.21,83.88c0,0.58,0.27,0.77,0.88,0.77h12.79c0.58,0,0.85-0.19,0.85-0.77v-3.82h-14.52V83.88z"/>
	<path class="st0" d="M300.75,73.23c-2.2,0.42-4.49,0.77-6.69,0.96c-0.03,0-0.08,0-0.11,0c-0.5,0-0.85-0.29-0.93-0.9
		c0-0.05,0-0.11,0-0.16c0-0.5,0.32-0.82,0.82-0.85c5.39-0.45,11.65-1.8,15.5-3.42c0.21-0.08,0.4-0.13,0.58-0.13
		c0.34,0,0.64,0.13,0.82,0.53c0.11,0.19,0.16,0.37,0.16,0.56c0,0.34-0.21,0.66-0.66,0.82c-2.12,0.82-4.7,1.57-7.46,2.2v3.56
		l11.89-1.38c0.03,0,0.05,0,0.08,0c0.42,0,0.69,0.37,0.77,0.88c0,0.05,0,0.08,0,0.13c0,0.48-0.29,0.85-0.74,0.9l-12,1.41v5.47
		c0,0.64,0.11,0.85,0.9,0.98c0.69,0.11,1.88,0.16,3.93,0.16c4.01,0,4.59-0.24,5.02-0.87c0.32-0.5,0.48-1.38,0.53-2.39
		c0.03-0.5,0.37-0.8,0.93-0.8c0.05,0,0.11,0,0.16,0c0.64,0.08,0.98,0.37,0.98,0.96c0,0.03,0,0.03,0,0.05
		c-0.08,1.41-0.32,2.65-0.9,3.48c-0.82,1.14-2.1,1.51-6.77,1.51c-2.73,0-4.19-0.13-5.1-0.37c-1.19-0.29-1.72-0.9-1.72-2.31v-5.63
		l-8.23,0.96c-0.05,0-0.08,0-0.13,0c-0.45,0-0.77-0.37-0.82-0.88c0-0.05,0-0.11,0-0.16c0-0.45,0.21-0.77,0.64-0.85l8.55-1.01V73.23z
		 M312.69,65.56c1.57,0,2.34,0.64,2.34,2.18v2.89c0,0.5-0.42,0.77-1.06,0.77c-0.64,0-1.06-0.27-1.06-0.77v-2.47
		c0-0.56-0.29-0.74-0.82-0.74h-17.04c-0.53,0-0.82,0.19-0.82,0.74v2.47c0,0.5-0.45,0.77-1.09,0.77c-0.64,0-1.03-0.27-1.03-0.77
		v-2.89c0-1.54,0.74-2.18,2.34-2.18h7.96v-2.07c0-0.5,0.37-0.72,1.03-0.72c0.66,0,1.04,0.21,1.04,0.72v2.07H312.69z"/>
	<path class="st0" d="M325.46,73.58c2.07-1.46,3.56-2.18,5.2-2.18c1.91,0,3.32,0.82,3.66,3.11c2.39-0.85,4.7-1.57,6.53-2.1
		c0.16-0.03,0.32-0.05,0.45-0.05c0.48,0,0.82,0.24,0.98,0.72c0.03,0.16,0.05,0.29,0.05,0.42c0,0.48-0.27,0.85-0.85,0.98
		c-1.94,0.5-4.43,1.17-6.98,2.1c0.05,0.96,0.08,1.88,0.08,2.84c0,0.5,0,1.01-0.03,1.51c-0.03,0.66-0.45,1.01-1.03,1.01
		c-0.61,0-0.98-0.34-0.98-1.01c0-0.72,0-1.59,0-2.44c0-0.43,0-0.88,0-1.27c-3.72,1.43-5.36,3.03-5.36,4.67
		c0,1.57,1.72,2.39,5.47,2.39c2.55,0,5.2-0.24,7.17-0.58c0.13-0.03,0.24-0.03,0.37-0.03c0.53,0,0.88,0.27,0.98,0.82
		c0.03,0.11,0.03,0.19,0.03,0.27c0,0.56-0.37,1.01-0.98,1.09c-1.99,0.34-4.57,0.56-7.4,0.56c-4.99,0-7.8-1.38-7.8-4.43
		c0-2.52,2.44-4.99,7.38-6.77c-0.16-1.62-0.96-2.07-2.12-2.07c-2.26,0-5.18,1.75-8.36,4.99c-0.24,0.27-0.56,0.4-0.85,0.4
		c-0.26,0-0.5-0.11-0.72-0.32c-0.24-0.21-0.34-0.5-0.34-0.8c0-0.32,0.13-0.61,0.37-0.85c2.28-2.12,4.57-4.88,6.29-7.62
		c-0.37,0-0.8,0-1.22,0c-1.33,0-2.84-0.03-4.03-0.08c-0.58-0.03-0.93-0.45-0.93-0.98c0-0.03,0-0.08,0-0.11
		c0.05-0.53,0.42-0.98,0.96-0.98c0.03,0,0.05,0,0.08,0c1.25,0.11,2.95,0.13,4.7,0.13c0.5,0,1.01,0,1.51,0
		c0.53-0.96,1.01-1.94,1.33-2.89c0.19-0.56,0.56-0.77,0.98-0.77c0.13,0,0.24,0.03,0.37,0.05c0.53,0.11,0.82,0.42,0.82,0.82
		c0,0.13-0.03,0.29-0.11,0.45c-0.32,0.77-0.66,1.49-1.06,2.28c2.26-0.08,5.41-0.4,8.33-0.82c0.08-0.03,0.16-0.03,0.24-0.03
		c0.53,0,0.88,0.29,0.96,0.85c0,0.05,0,0.11,0,0.19c0,0.5-0.32,0.88-0.9,0.98c-3.34,0.48-6.66,0.77-9.69,0.85
		c-1.03,1.75-2.26,3.34-3.64,4.54L325.46,73.58z"/>
	<path class="st0" d="M358.72,66.41c-0.45-1.03-1.01-1.99-1.43-2.63c-0.08-0.13-0.11-0.29-0.11-0.42c0-0.32,0.21-0.61,0.61-0.72
		c0.16-0.05,0.29-0.08,0.45-0.08c0.34,0,0.61,0.13,0.82,0.48c0.48,0.74,1.19,2.1,1.62,3.37h3c0.74-1.03,1.43-2.31,1.88-3.21
		c0.16-0.35,0.45-0.5,0.82-0.5c0.16,0,0.32,0.03,0.5,0.08c0.42,0.16,0.64,0.43,0.64,0.77c0,0.13-0.03,0.29-0.11,0.45
		c-0.45,0.82-1.04,1.67-1.62,2.42h4.33c0.53,0,0.77,0.32,0.77,0.85c0,0.5-0.24,0.85-0.77,0.85h-19.11c-0.8,0-1.06,0.24-1.06,1.03
		c0,3.16,0,6.32-0.24,9.32c-0.24,3.21-0.96,6.13-1.78,7.99c-0.19,0.37-0.5,0.58-0.88,0.58c-0.16,0-0.37-0.05-0.56-0.13
		c-0.4-0.21-0.56-0.48-0.56-0.82c0-0.16,0.05-0.34,0.13-0.53c0.88-1.8,1.51-4.64,1.72-7.35c0.16-2.02,0.19-4.06,0.19-6.34
		c0-1.03,0-2.1,0-3.21c0-1.51,0.8-2.23,2.31-2.23h2.44c-0.5-0.9-1.06-1.67-1.54-2.36c-0.11-0.11-0.13-0.24-0.13-0.34
		c0-0.29,0.24-0.58,0.61-0.74c0.16-0.05,0.32-0.08,0.48-0.08c0.32,0,0.58,0.13,0.8,0.37c0.64,0.9,1.3,1.99,1.88,3.16H358.72z
		 M360.74,72.89c0.42,0,0.66,0.27,0.66,0.74c0,0.42-0.24,0.74-0.66,0.74h-1.14v12.45c0,0.42-0.37,0.66-0.9,0.66
		s-0.88-0.24-0.88-0.66V84.3c-2.31,0.61-4.8,1.01-7.3,1.3c-0.05,0-0.08,0-0.13,0c-0.45,0-0.77-0.29-0.8-0.8
		c-0.03-0.08-0.03-0.13-0.03-0.19c0-0.45,0.27-0.77,0.72-0.8c0.5-0.03,1.01-0.08,1.51-0.13v-9.32h-0.72c-0.42,0-0.66-0.32-0.66-0.74
		c0-0.48,0.24-0.74,0.66-0.74h3.85v-1.8h-2.97c-0.37,0-0.61-0.4-0.61-0.77c0-0.42,0.24-0.74,0.61-0.74h8.01
		c0.42,0,0.61,0.32,0.61,0.74c0,0.4-0.19,0.77-0.61,0.77h-3.24v1.8H360.74z M353.57,74.37v1.86h4.25v-1.86H353.57z M353.57,79.58
		h4.25v-1.91h-4.25V79.58z M353.57,83.48c1.43-0.21,2.84-0.48,4.25-0.8v-1.65h-4.25V83.48z M369.15,73.95
		c-0.24,2.71-0.9,5.47-2.28,7.83c1.09,1.41,2.42,2.63,3.96,3.66c0.24,0.16,0.37,0.45,0.37,0.77c0,0.24-0.08,0.5-0.21,0.69
		c-0.21,0.29-0.53,0.43-0.82,0.43c-0.21,0-0.42-0.08-0.58-0.19c-1.46-1.12-2.73-2.36-3.8-3.74c-1.11,1.43-2.49,2.68-4.22,3.82
		c-0.16,0.11-0.37,0.16-0.56,0.16c-0.29,0-0.61-0.13-0.8-0.48c-0.13-0.19-0.19-0.37-0.19-0.58c0-0.32,0.16-0.61,0.45-0.77
		c1.75-1.09,3.16-2.31,4.22-3.74c-0.87-1.46-1.54-3.08-1.96-4.75c-0.32,0.58-0.64,1.12-0.93,1.51c-0.21,0.27-0.42,0.37-0.66,0.37
		c-0.21,0-0.4-0.08-0.58-0.21c-0.24-0.19-0.34-0.45-0.34-0.69c0-0.24,0.08-0.45,0.24-0.64c1.51-1.86,2.89-5.15,3.4-7.8
		c0.08-0.48,0.42-0.69,0.85-0.69c0.05,0,0.13,0,0.19,0c0.48,0.08,0.8,0.4,0.8,0.8c0,0.03,0,0.08,0,0.11
		c-0.19,0.77-0.42,1.57-0.72,2.39h5.28c0.5,0,0.74,0.32,0.74,0.88c0,0.53-0.24,0.88-0.72,0.88H369.15z M364.29,73.95
		c-0.16,0.4-0.32,0.8-0.5,1.17c0.42,1.75,1.03,3.45,1.96,5.02c0.5-1.03,0.9-2.12,1.19-3.24c0.24-0.98,0.34-1.94,0.45-2.95H364.29z"
		/>
	<path class="st0" d="M377.92,83.05c-0.42,0-0.69-0.32-0.69-0.82c0-0.48,0.27-0.8,0.69-0.8h8.39V79.5h-6.24
		c-1.46,0-2.15-0.56-2.15-1.83v-5.1c0-1.3,0.69-1.83,2.15-1.83h6.24v-1.67h-10.22c-0.42,0-0.69-0.32-0.69-0.85
		c0-0.48,0.27-0.82,0.69-0.82h10.22v-1.86c-2.68,0.16-5.55,0.27-8.23,0.29c-0.48,0-0.8-0.32-0.8-0.85c0-0.53,0.24-0.82,0.77-0.82
		c4.27-0.03,9.13-0.27,12.87-0.72c1.78-0.21,3.32-0.45,4.64-0.74c0.11-0.03,0.19-0.03,0.27-0.03c0.4,0,0.72,0.21,0.82,0.64
		c0.03,0.11,0.05,0.21,0.05,0.32c0,0.4-0.21,0.72-0.64,0.8c-1.38,0.26-3.24,0.53-4.99,0.72c-0.9,0.11-1.86,0.19-2.84,0.27v1.99
		h10.51c0.42,0,0.69,0.32,0.69,0.82c0,0.53-0.27,0.85-0.69,0.85h-10.51v1.67h6.53c1.43,0,2.15,0.53,2.15,1.83v5.1
		c0,1.27-0.72,1.83-2.15,1.83h-6.53v1.94H397c0.42,0,0.66,0.32,0.66,0.8c0,0.5-0.24,0.82-0.66,0.82h-8.76v2.04h10.59
		c0.45,0,0.69,0.34,0.69,0.85c0,0.53-0.24,0.88-0.69,0.88h-22.8c-0.45,0-0.72-0.34-0.72-0.88c0-0.5,0.27-0.85,0.72-0.85h10.27v-2.04
		H377.92z M386.3,72.22h-5.68c-0.5,0-0.77,0.13-0.77,0.58v1.54h6.45V72.22z M386.3,75.81h-6.45v1.59c0,0.48,0.27,0.61,0.77,0.61
		h5.68V75.81z M394.98,74.35v-1.54c0-0.45-0.27-0.58-0.77-0.58h-5.97v2.12H394.98z M394.21,78.01c0.5,0,0.77-0.13,0.77-0.61v-1.59
		h-6.74v2.2H394.21z"/>
	<path class="st0" d="M425.19,66.25c-0.64,1.38-1.49,2.6-2.63,3.61c1.19,0.66,2.55,1.11,4.01,1.41c0.5,0.11,0.74,0.4,0.74,0.77
		c0,0.08,0,0.16-0.03,0.24c-0.13,0.5-0.42,0.74-0.85,0.74c-0.11,0-0.21,0-0.32-0.03c-1.75-0.37-3.48-1.09-4.99-2.07
		c-1.22,0.77-2.63,1.35-4.19,1.7c-0.13,0.03-0.27,0.05-0.37,0.05c-0.32,0-0.56-0.13-0.72-0.56c-0.03-0.11-0.05-0.19-0.05-0.29
		c0-0.32,0.21-0.61,0.56-0.69c1.3-0.29,2.44-0.72,3.4-1.25c-0.82-0.69-1.59-1.49-2.18-2.42c-0.24,0.29-0.48,0.56-0.72,0.77
		c-0.21,0.19-0.48,0.29-0.72,0.29c-0.21,0-0.4-0.08-0.56-0.24c-0.11-0.11-0.19-0.24-0.21-0.37v0.05c0,1.35-0.21,2.81-0.56,3.64
		c-0.27,0.69-0.85,1.06-1.7,1.06c-0.53,0-1.03-0.08-1.25-0.16c-0.24-0.08-0.45-0.34-0.45-0.69c0,0,0-0.03,0-0.05
		c-0.21,0.13-0.5,0.19-0.88,0.19h-3.82c-0.98,0-1.43-0.45-1.43-1.22v-0.96c0-0.77,0.45-1.22,1.43-1.22h3.82
		c0.96,0,1.46,0.45,1.46,1.22v0.96c0,0.08,0,0.16-0.03,0.24c0.05-0.03,0.11-0.03,0.16-0.03c0.03,0,0.08,0,0.13,0.03
		c0.27,0.08,0.43,0.11,0.66,0.11c0.24,0,0.42-0.08,0.5-0.43c0.13-0.53,0.27-1.67,0.27-2.44c0-0.37-0.19-0.4-0.58-0.4h-7.19
		c-0.53,0.82-1.14,1.59-1.75,2.15c-0.21,0.21-0.45,0.32-0.72,0.32c-0.21,0-0.43-0.08-0.58-0.24c-0.19-0.13-0.27-0.34-0.27-0.53
		c0-0.21,0.08-0.45,0.29-0.61c0.64-0.58,1.73-1.88,2.18-2.84c0.13-0.29,0.37-0.45,0.72-0.45c0.11,0,0.24,0.03,0.4,0.05
		c0.37,0.13,0.53,0.32,0.53,0.56c0,0.08-0.03,0.16-0.05,0.24l7.06,0.03c0.98,0,1.51,0.34,1.62,1.17c0.03-0.19,0.13-0.37,0.27-0.5
		c1.06-1.01,2.2-2.63,2.79-4.06c0.11-0.32,0.42-0.5,0.74-0.5c0.13,0,0.24,0.03,0.37,0.05c0.37,0.13,0.58,0.34,0.58,0.64
		c0,0.11-0.03,0.21-0.08,0.34c-0.16,0.34-0.34,0.74-0.56,1.11h7.11c0.37,0,0.61,0.29,0.61,0.74c0,0.48-0.24,0.77-0.61,0.77H425.19z
		 M426.52,75.6c0.4,0,0.61,0.29,0.61,0.72c0,0.4-0.21,0.72-0.61,0.72h-22.93c-0.4,0-0.64-0.32-0.64-0.72c0-0.43,0.24-0.72,0.64-0.72
		H426.52z M403.69,65.03c-0.4,0-0.58-0.29-0.58-0.69c0-0.4,0.19-0.66,0.58-0.66h3.21v-0.45c0-0.4,0.29-0.64,0.8-0.64
		c0.53,0,0.8,0.24,0.8,0.61v0.48h2.76v-0.45c0-0.4,0.29-0.64,0.8-0.64c0.53,0,0.8,0.24,0.8,0.61v0.48h2.76
		c0.4,0,0.61,0.27,0.61,0.66c0,0.43-0.21,0.69-0.61,0.69h-2.76v0.37c0,0.42-0.29,0.64-0.82,0.64c-0.48,0-0.77-0.21-0.77-0.64v-0.37
		h-2.76v0.37c0,0.42-0.29,0.64-0.82,0.64c-0.48,0-0.77-0.21-0.77-0.64v-0.37H403.69z M422.43,82.6c1.35,0,1.91,0.37,1.91,1.51v1.38
		c0,1.11-0.56,1.51-1.91,1.51h-14.76c-1.35,0-1.91-0.4-1.91-1.51v-1.38c0-1.14,0.56-1.51,1.91-1.51H422.43z M423.65,73.37
		c0.37,0,0.53,0.27,0.53,0.64c0,0.34-0.16,0.61-0.53,0.61h-17.17c-0.34,0-0.53-0.27-0.53-0.61c0-0.37,0.19-0.64,0.53-0.64H423.65z
		 M423.57,78.01c0.34,0,0.5,0.21,0.5,0.61c0,0.42-0.16,0.66-0.5,0.66h-16.99c-0.32,0-0.5-0.27-0.5-0.66c0-0.4,0.19-0.61,0.5-0.61
		H423.57z M423.57,80.32c0.34,0,0.5,0.24,0.5,0.64c0,0.42-0.16,0.64-0.5,0.64h-16.99c-0.32,0-0.5-0.24-0.5-0.64s0.19-0.64,0.5-0.64
		H423.57z M410.51,70.02c0-0.34-0.13-0.4-0.5-0.4h-2.73c-0.37,0-0.5,0.05-0.5,0.4v0.48c0,0.34,0.13,0.4,0.5,0.4h2.73
		c0.37,0,0.5-0.05,0.5-0.4V70.02z M421.77,85.63c0.48,0,0.66-0.08,0.66-0.48v-0.69c0-0.4-0.19-0.48-0.66-0.48h-13.46
		c-0.48,0-0.64,0.08-0.64,0.48v0.69c0,0.4,0.16,0.48,0.64,0.48H421.77z M418.61,66.25c0.66,1.06,1.51,1.99,2.52,2.73
		c0.9-0.77,1.65-1.67,2.2-2.73H418.61z"/>
	<path class="st0" d="M433.34,75.62c0-0.98,0.11-2.07,0.24-3.1c-0.4,0.9-0.88,1.72-1.43,2.41c-0.21,0.29-0.5,0.42-0.8,0.42
		c-0.21,0-0.45-0.08-0.66-0.26c-0.27-0.19-0.4-0.45-0.4-0.72c0-0.21,0.08-0.45,0.27-0.69c2.23-2.79,3.98-6.4,4.91-10.16
		c0.13-0.5,0.45-0.72,0.88-0.72c0.11,0,0.24,0.03,0.34,0.05c0.5,0.08,0.8,0.35,0.8,0.77c0,0.08,0,0.19-0.05,0.29
		c-0.5,1.78-1.12,3.66-2.07,5.49v17.33c0,0.5-0.4,0.77-1.03,0.77c-0.58,0-0.98-0.27-0.98-0.77V75.62z M454.74,69.62
		c0.53,0,0.77,0.37,0.77,0.9c0,0.53-0.24,0.88-0.77,0.88h-14.12c-0.74,0-1.06,0.19-1.06,0.98c0,1.17-0.05,2.41-0.05,3.61
		c-0.05,4.06-0.61,7.62-1.75,10.27c-0.16,0.42-0.42,0.61-0.8,0.61c-0.13,0-0.32-0.03-0.5-0.11c-0.4-0.19-0.61-0.45-0.61-0.8
		c0-0.16,0.03-0.32,0.11-0.48c1.19-2.6,1.7-5.81,1.72-9.95c0-1.14,0-2.23,0-3.42c0-1.67,0.82-2.49,2.34-2.49H454.74z M442.1,63.52
		c0-0.45,0.37-0.74,0.96-0.74c0.58,0,0.96,0.29,0.96,0.74v1.67h4.49v-1.67c0-0.45,0.37-0.74,0.96-0.74c0.58,0,0.96,0.29,0.96,0.74
		v1.67h4.22c0.48,0,0.74,0.32,0.74,0.88c0,0.56-0.27,0.85-0.74,0.85h-4.22v1.43c0,0.4-0.37,0.69-0.96,0.69
		c-0.58,0-0.96-0.29-0.96-0.69v-1.43h-4.49v1.43c0,0.43-0.37,0.69-0.96,0.69c-0.58,0-0.96-0.26-0.96-0.69v-1.43h-3.53
		c-0.5,0-0.82-0.29-0.82-0.82c0,0,0-0.03,0-0.05c0-0.5,0.27-0.85,0.74-0.85h3.61V63.52z M442.63,82.42v4.11
		c0,0.5-0.29,0.74-0.9,0.74c-0.56,0-0.93-0.24-0.93-0.74V75.17c0-1.51,0.72-2.02,2.15-2.02h9.32c1.49,0,2.12,0.58,2.12,2.1v9.74
		c0,1.51-0.72,2.18-2.26,2.18c-0.77,0-1.38-0.05-1.88-0.16c-0.34-0.08-0.61-0.34-0.61-0.8c0-0.05,0-0.13,0-0.19
		c0.08-0.5,0.4-0.72,0.72-0.72c0.05,0,0.08,0,0.13,0.03c0.37,0.08,0.82,0.13,1.22,0.13c0.69,0,0.88-0.16,0.88-0.74v-2.31h-4.22v3.93
		c0,0.42-0.32,0.66-0.88,0.66c-0.56,0-0.85-0.24-0.85-0.66v-3.93H442.63z M446.64,74.77h-3.26c-0.48,0-0.74,0.13-0.74,0.64v1.67
		h4.01V74.77z M446.64,78.59h-4.01v2.31h4.01V78.59z M452.59,77.08v-1.67c0-0.5-0.24-0.64-0.72-0.64h-3.5v2.31H452.59z M452.59,80.9
		v-2.31h-4.22v2.31H452.59z"/>
</g>
</svg>
