<?xml version="1.0" encoding="utf-8"?>
<!-- Generator: Adobe Illustrator 23.0.6, SVG Export Plug-In . SVG Version: 6.00 Build 0)  -->
<svg version="1.1" id="レイヤー_1" xmlns="http://www.w3.org/2000/svg" xmlns:xlink="http://www.w3.org/1999/xlink" x="0px"
	 y="0px" viewBox="0 0 200 200" style="enable-background:new 0 0 200 200;" xml:space="preserve">
<style type="text/css">
	.st0{fill:#3E3A39;}
</style>
<path class="st0" d="M182.9,75.5c8.3-16.3,6.4-53.3-1.3-57.7c-4.2-2.4-23.8,5.4-40.8,15.5c-11.8-5.6-25.6-8.9-41.4-8.9
	c-15.9,0-29.7,3.3-41.5,8.8c-17-10-36.5-17.8-40.7-15.4C9.4,22.2,7.5,59,15.8,75.4C9.1,89,5.8,103.8,5.8,117.5
	c0,42.1,40.9,67.1,93.5,67.1c52.6,0,93.5-25,93.5-67.1C192.9,103.8,189.5,89.1,182.9,75.5z M75.6,114.1c-3.9,0-7.1-3.2-7.1-7.1
	c0-3.9,3.2-7.1,7.1-7.1c3.9,0,7.1,3.2,7.1,7.1C82.7,111,79.5,114.1,75.6,114.1z M131.7,114.1c-3.9,0-7.1-3.2-7.1-7.1
	c0-3.9,3.2-7.1,7.1-7.1c3.9,0,7.1,3.2,7.1,7.1C138.7,111,135.6,114.1,131.7,114.1z"/>
</svg>
