<?xml version="1.0" encoding="utf-8"?>
<!-- Generator: Adobe Illustrator 23.0.6, SVG Export Plug-In . SVG Version: 6.00 Build 0)  -->
<svg version="1.1" id="レイヤー_1" xmlns="http://www.w3.org/2000/svg" xmlns:xlink="http://www.w3.org/1999/xlink" x="0px"
	 y="0px" viewBox="0 0 200 200" style="enable-background:new 0 0 200 200;" xml:space="preserve">
<style type="text/css">
	.st0{fill:#3E3A39;}
</style>
<path class="st0" d="M168.5,152.1c5.8-7.4,9.2-16.7,9.2-26.8c0-24.1-19.6-43.8-43.8-43.8c-24.1,0-43.8,19.6-43.8,43.8
	c0,24.1,19.6,43.8,43.8,43.8c10.1,0,19.4-3.5,26.8-9.2l24.1,24.1c1.1,1.1,2.5,1.6,3.9,1.6c1.4,0,2.8-0.5,3.9-1.6
	c2.1-2.1,2.1-5.6,0-7.7L168.5,152.1z M134,158.1c-18.1,0-32.8-14.7-32.8-32.8s14.7-32.8,32.8-32.8s32.8,14.7,32.8,32.8
	S152.1,158.1,134,158.1z M106.6,125.3c0-15.1,12.3-27.4,27.4-27.4c3,0,5.5,2.5,5.5,5.5c0,3-2.4,5.5-5.5,5.5
	c-9.1,0-16.4,7.4-16.4,16.4c0,3-2.4,5.5-5.5,5.5C109,130.7,106.6,128.3,106.6,125.3z"/>
<path class="st0" d="M82.9,124.2c0-27.3,22.1-49.4,49.4-49.4c9.5,0,18.4,2.7,25.9,7.4c-1.3-6.8-3.6-13.6-6.7-20
	c6.8-13.4,5.3-43.7-1.1-47.4c-3.5-2-19.6,4.5-33.5,12.7c-9.7-4.6-21-7.3-34-7.3c-13,0-24.4,2.7-34.1,7.3
	c-13.9-8.2-30-14.6-33.4-12.7C9,18.3,7.5,48.6,14.3,62C8.8,73.2,6.1,85.3,6.1,96.6c0,34.6,33.6,55.1,76.8,55.1
	c2.8,0,5.5-0.1,8.2-0.3C85.9,143.6,82.9,134.3,82.9,124.2z"/>
</svg>
